<svg width="1363" height="167" viewBox="0 0 1363 167" fill="none" xmlns="http://www.w3.org/2000/svg">
<rect width="1363" height="167" rx="15" fill="#F0F0F0"/>
<path d="M0 15C0 6.71573 6.71573 0 15 0H37V167H15C6.71573 167 0 160.284 0 152V15Z" fill="#424241"/>
<path d="M100.906 54.9219L93.3945 52.2383V49.0859L103.602 53.375V55.6367L100.906 54.9219ZM93.3945 57.1719L100.918 54.4297L103.602 53.7852V56.0352L93.3945 60.3242V57.1719ZM115.414 44.9375V62H111.898V44.9375H115.414ZM122.211 52.2266V54.9688H114.453V52.2266H122.211ZM123.031 44.9375V47.6914H114.453V44.9375H123.031ZM124.062 55.7891V55.543C124.062 54.6133 124.195 53.7578 124.461 52.9766C124.727 52.1875 125.113 51.5039 125.621 50.9258C126.129 50.3477 126.754 49.8984 127.496 49.5781C128.238 49.25 129.09 49.0859 130.051 49.0859C131.012 49.0859 131.867 49.25 132.617 49.5781C133.367 49.8984 133.996 50.3477 134.504 50.9258C135.02 51.5039 135.41 52.1875 135.676 52.9766C135.941 53.7578 136.074 54.6133 136.074 55.543V55.7891C136.074 56.7109 135.941 57.5664 135.676 58.3555C135.41 59.1367 135.02 59.8203 134.504 60.4062C133.996 60.9844 133.371 61.4336 132.629 61.7539C131.887 62.0742 131.035 62.2344 130.074 62.2344C129.113 62.2344 128.258 62.0742 127.508 61.7539C126.766 61.4336 126.137 60.9844 125.621 60.4062C125.113 59.8203 124.727 59.1367 124.461 58.3555C124.195 57.5664 124.062 56.7109 124.062 55.7891ZM127.438 55.543V55.7891C127.438 56.3203 127.484 56.8164 127.578 57.2773C127.672 57.7383 127.82 58.1445 128.023 58.4961C128.234 58.8398 128.508 59.1094 128.844 59.3047C129.18 59.5 129.59 59.5977 130.074 59.5977C130.543 59.5977 130.945 59.5 131.281 59.3047C131.617 59.1094 131.887 58.8398 132.09 58.4961C132.293 58.1445 132.441 57.7383 132.535 57.2773C132.637 56.8164 132.688 56.3203 132.688 55.7891V55.543C132.688 55.0273 132.637 54.543 132.535 54.0898C132.441 53.6289 132.289 53.2227 132.078 52.8711C131.875 52.5117 131.605 52.2305 131.27 52.0273C130.934 51.8242 130.527 51.7227 130.051 51.7227C129.574 51.7227 129.168 51.8242 128.832 52.0273C128.504 52.2305 128.234 52.5117 128.023 52.8711C127.82 53.2227 127.672 53.6289 127.578 54.0898C127.484 54.543 127.438 55.0273 127.438 55.543ZM137.609 55.7891V55.543C137.609 54.6133 137.742 53.7578 138.008 52.9766C138.273 52.1875 138.66 51.5039 139.168 50.9258C139.676 50.3477 140.301 49.8984 141.043 49.5781C141.785 49.25 142.637 49.0859 143.598 49.0859C144.559 49.0859 145.414 49.25 146.164 49.5781C146.914 49.8984 147.543 50.3477 148.051 50.9258C148.566 51.5039 148.957 52.1875 149.223 52.9766C149.488 53.7578 149.621 54.6133 149.621 55.543V55.7891C149.621 56.7109 149.488 57.5664 149.223 58.3555C148.957 59.1367 148.566 59.8203 148.051 60.4062C147.543 60.9844 146.918 61.4336 146.176 61.7539C145.434 62.0742 144.582 62.2344 143.621 62.2344C142.66 62.2344 141.805 62.0742 141.055 61.7539C140.312 61.4336 139.684 60.9844 139.168 60.4062C138.66 59.8203 138.273 59.1367 138.008 58.3555C137.742 57.5664 137.609 56.7109 137.609 55.7891ZM140.984 55.543V55.7891C140.984 56.3203 141.031 56.8164 141.125 57.2773C141.219 57.7383 141.367 58.1445 141.57 58.4961C141.781 58.8398 142.055 59.1094 142.391 59.3047C142.727 59.5 143.137 59.5977 143.621 59.5977C144.09 59.5977 144.492 59.5 144.828 59.3047C145.164 59.1094 145.434 58.8398 145.637 58.4961C145.84 58.1445 145.988 57.7383 146.082 57.2773C146.184 56.8164 146.234 56.3203 146.234 55.7891V55.543C146.234 55.0273 146.184 54.543 146.082 54.0898C145.988 53.6289 145.836 53.2227 145.625 52.8711C145.422 52.5117 145.152 52.2305 144.816 52.0273C144.48 51.8242 144.074 51.7227 143.598 51.7227C143.121 51.7227 142.715 51.8242 142.379 52.0273C142.051 52.2305 141.781 52.5117 141.57 52.8711C141.367 53.2227 141.219 53.6289 141.125 54.0898C141.031 54.543 140.984 55.0273 140.984 55.543ZM159.184 59.2344V44H162.582V62H159.523L159.184 59.2344ZM151.168 55.8125V55.5664C151.168 54.5977 151.277 53.7188 151.496 52.9297C151.715 52.1328 152.035 51.4492 152.457 50.8789C152.879 50.3086 153.398 49.8672 154.016 49.5547C154.633 49.2422 155.336 49.0859 156.125 49.0859C156.867 49.0859 157.516 49.2422 158.07 49.5547C158.633 49.8672 159.109 50.3125 159.5 50.8906C159.898 51.4609 160.219 52.1367 160.461 52.918C160.703 53.6914 160.879 54.5391 160.988 55.4609V56C160.879 56.8828 160.703 57.7031 160.461 58.4609C160.219 59.2188 159.898 59.8828 159.5 60.4531C159.109 61.0156 158.633 61.4531 158.07 61.7656C157.508 62.0781 156.852 62.2344 156.102 62.2344C155.312 62.2344 154.609 62.0742 153.992 61.7539C153.383 61.4336 152.867 60.9844 152.445 60.4062C152.031 59.8281 151.715 59.1484 151.496 58.3672C151.277 57.5859 151.168 56.7344 151.168 55.8125ZM154.543 55.5664V55.8125C154.543 56.3359 154.582 56.8242 154.66 57.2773C154.746 57.7305 154.883 58.1328 155.07 58.4844C155.266 58.8281 155.516 59.0977 155.82 59.293C156.133 59.4805 156.512 59.5742 156.957 59.5742C157.535 59.5742 158.012 59.4453 158.387 59.1875C158.762 58.9219 159.047 58.5586 159.242 58.0977C159.445 57.6367 159.562 57.1055 159.594 56.5039V54.9688C159.57 54.4766 159.5 54.0352 159.383 53.6445C159.273 53.2461 159.109 52.9062 158.891 52.625C158.68 52.3438 158.414 52.125 158.094 51.9688C157.781 51.8125 157.41 51.7344 156.98 51.7344C156.543 51.7344 156.168 51.8359 155.855 52.0391C155.543 52.2344 155.289 52.5039 155.094 52.8477C154.906 53.1914 154.766 53.5977 154.672 54.0664C154.586 54.5273 154.543 55.0273 154.543 55.5664ZM165.43 44.9375H171.793C173.098 44.9375 174.219 45.1328 175.156 45.5234C176.102 45.9141 176.828 46.4922 177.336 47.2578C177.844 48.0234 178.098 48.9648 178.098 50.082C178.098 50.9961 177.941 51.7812 177.629 52.4375C177.324 53.0859 176.891 53.6289 176.328 54.0664C175.773 54.4961 175.121 54.8398 174.371 55.0977L173.258 55.6836H167.727L167.703 52.9414H171.816C172.434 52.9414 172.945 52.832 173.352 52.6133C173.758 52.3945 174.062 52.0898 174.266 51.6992C174.477 51.3086 174.582 50.8555 174.582 50.3398C174.582 49.793 174.48 49.3203 174.277 48.9219C174.074 48.5234 173.766 48.2188 173.352 48.0078C172.938 47.7969 172.418 47.6914 171.793 47.6914H168.945V62H165.43V44.9375ZM174.969 62L171.078 54.3945L174.793 54.3711L178.73 61.8359V62H174.969ZM186.43 62.2344C185.445 62.2344 184.562 62.0781 183.781 61.7656C183 61.4453 182.336 61.0039 181.789 60.4414C181.25 59.8789 180.836 59.2266 180.547 58.4844C180.258 57.7344 180.113 56.9375 180.113 56.0938V55.625C180.113 54.6641 180.25 53.7852 180.523 52.9883C180.797 52.1914 181.188 51.5 181.695 50.9141C182.211 50.3281 182.836 49.8789 183.57 49.5664C184.305 49.2461 185.133 49.0859 186.055 49.0859C186.953 49.0859 187.75 49.2344 188.445 49.5312C189.141 49.8281 189.723 50.25 190.191 50.7969C190.668 51.3438 191.027 52 191.27 52.7656C191.512 53.5234 191.633 54.3672 191.633 55.2969V56.7031H181.555V54.4531H188.316V54.1953C188.316 53.7266 188.23 53.3086 188.059 52.9414C187.895 52.5664 187.645 52.2695 187.309 52.0508C186.973 51.832 186.543 51.7227 186.02 51.7227C185.574 51.7227 185.191 51.8203 184.871 52.0156C184.551 52.2109 184.289 52.4844 184.086 52.8359C183.891 53.1875 183.742 53.6016 183.641 54.0781C183.547 54.5469 183.5 55.0625 183.5 55.625V56.0938C183.5 56.6016 183.57 57.0703 183.711 57.5C183.859 57.9297 184.066 58.3008 184.332 58.6133C184.605 58.9258 184.934 59.168 185.316 59.3398C185.707 59.5117 186.148 59.5977 186.641 59.5977C187.25 59.5977 187.816 59.4805 188.34 59.2461C188.871 59.0039 189.328 58.6406 189.711 58.1562L191.352 59.9375C191.086 60.3203 190.723 60.6875 190.262 61.0391C189.809 61.3906 189.262 61.6797 188.621 61.9062C187.98 62.125 187.25 62.2344 186.43 62.2344ZM198.793 59.5977C199.207 59.5977 199.574 59.5195 199.895 59.3633C200.215 59.1992 200.465 58.9727 200.645 58.6836C200.832 58.3867 200.93 58.0391 200.938 57.6406H204.113C204.105 58.5312 203.867 59.3242 203.398 60.0195C202.93 60.707 202.301 61.25 201.512 61.6484C200.723 62.0391 199.84 62.2344 198.863 62.2344C197.879 62.2344 197.02 62.0703 196.285 61.7422C195.559 61.4141 194.953 60.9609 194.469 60.3828C193.984 59.7969 193.621 59.1172 193.379 58.3438C193.137 57.5625 193.016 56.7266 193.016 55.8359V55.4961C193.016 54.5977 193.137 53.7617 193.379 52.9883C193.621 52.207 193.984 51.5273 194.469 50.9492C194.953 50.3633 195.559 49.9062 196.285 49.5781C197.012 49.25 197.863 49.0859 198.84 49.0859C199.879 49.0859 200.789 49.2852 201.57 49.6836C202.359 50.082 202.977 50.6523 203.422 51.3945C203.875 52.1289 204.105 53 204.113 54.0078H200.938C200.93 53.5859 200.84 53.2031 200.668 52.8594C200.504 52.5156 200.262 52.2422 199.941 52.0391C199.629 51.8281 199.242 51.7227 198.781 51.7227C198.289 51.7227 197.887 51.8281 197.574 52.0391C197.262 52.2422 197.02 52.5234 196.848 52.8828C196.676 53.2344 196.555 53.6367 196.484 54.0898C196.422 54.5352 196.391 55.0039 196.391 55.4961V55.8359C196.391 56.3281 196.422 56.8008 196.484 57.2539C196.547 57.707 196.664 58.1094 196.836 58.4609C197.016 58.8125 197.262 59.0898 197.574 59.293C197.887 59.4961 198.293 59.5977 198.793 59.5977ZM209.633 49.3203V62H206.246V49.3203H209.633ZM206.035 46.0156C206.035 45.5234 206.207 45.1172 206.551 44.7969C206.895 44.4766 207.355 44.3164 207.934 44.3164C208.504 44.3164 208.961 44.4766 209.305 44.7969C209.656 45.1172 209.832 45.5234 209.832 46.0156C209.832 46.5078 209.656 46.9141 209.305 47.2344C208.961 47.5547 208.504 47.7148 207.934 47.7148C207.355 47.7148 206.895 47.5547 206.551 47.2344C206.207 46.9141 206.035 46.5078 206.035 46.0156ZM215.797 51.7578V66.875H212.422V49.3203H215.551L215.797 51.7578ZM223.824 55.5195V55.7656C223.824 56.6875 223.715 57.543 223.496 58.332C223.285 59.1211 222.973 59.8086 222.559 60.3945C222.145 60.9727 221.629 61.4258 221.012 61.7539C220.402 62.0742 219.699 62.2344 218.902 62.2344C218.129 62.2344 217.457 62.0781 216.887 61.7656C216.316 61.4531 215.836 61.0156 215.445 60.4531C215.062 59.8828 214.754 59.2227 214.52 58.4727C214.285 57.7227 214.105 56.918 213.98 56.0586V55.4141C214.105 54.4922 214.285 53.6484 214.52 52.8828C214.754 52.1094 215.062 51.4414 215.445 50.8789C215.836 50.3086 216.312 49.8672 216.875 49.5547C217.445 49.2422 218.113 49.0859 218.879 49.0859C219.684 49.0859 220.391 49.2383 221 49.543C221.617 49.8477 222.133 50.2852 222.547 50.8555C222.969 51.4258 223.285 52.1055 223.496 52.8945C223.715 53.6836 223.824 54.5586 223.824 55.5195ZM220.438 55.7656V55.5195C220.438 54.9805 220.391 54.4844 220.297 54.0312C220.211 53.5703 220.07 53.168 219.875 52.8242C219.688 52.4805 219.438 52.2148 219.125 52.0273C218.82 51.832 218.449 51.7344 218.012 51.7344C217.551 51.7344 217.156 51.8086 216.828 51.957C216.508 52.1055 216.246 52.3203 216.043 52.6016C215.84 52.8828 215.688 53.2188 215.586 53.6094C215.484 54 215.422 54.4414 215.398 54.9336V56.5625C215.438 57.1406 215.547 57.6602 215.727 58.1211C215.906 58.5742 216.184 58.9336 216.559 59.1992C216.934 59.4648 217.426 59.5977 218.035 59.5977C218.48 59.5977 218.855 59.5 219.16 59.3047C219.465 59.1016 219.711 58.8242 219.898 58.4727C220.094 58.1211 220.23 57.7148 220.309 57.2539C220.395 56.793 220.438 56.2969 220.438 55.7656ZM231.758 62.2344C230.773 62.2344 229.891 62.0781 229.109 61.7656C228.328 61.4453 227.664 61.0039 227.117 60.4414C226.578 59.8789 226.164 59.2266 225.875 58.4844C225.586 57.7344 225.441 56.9375 225.441 56.0938V55.625C225.441 54.6641 225.578 53.7852 225.852 52.9883C226.125 52.1914 226.516 51.5 227.023 50.9141C227.539 50.3281 228.164 49.8789 228.898 49.5664C229.633 49.2461 230.461 49.0859 231.383 49.0859C232.281 49.0859 233.078 49.2344 233.773 49.5312C234.469 49.8281 235.051 50.25 235.52 50.7969C235.996 51.3438 236.355 52 236.598 52.7656C236.84 53.5234 236.961 54.3672 236.961 55.2969V56.7031H226.883V54.4531H233.645V54.1953C233.645 53.7266 233.559 53.3086 233.387 52.9414C233.223 52.5664 232.973 52.2695 232.637 52.0508C232.301 51.832 231.871 51.7227 231.348 51.7227C230.902 51.7227 230.52 51.8203 230.199 52.0156C229.879 52.2109 229.617 52.4844 229.414 52.8359C229.219 53.1875 229.07 53.6016 228.969 54.0781C228.875 54.5469 228.828 55.0625 228.828 55.625V56.0938C228.828 56.6016 228.898 57.0703 229.039 57.5C229.188 57.9297 229.395 58.3008 229.66 58.6133C229.934 58.9258 230.262 59.168 230.645 59.3398C231.035 59.5117 231.477 59.5977 231.969 59.5977C232.578 59.5977 233.145 59.4805 233.668 59.2461C234.199 59.0039 234.656 58.6406 235.039 58.1562L236.68 59.9375C236.414 60.3203 236.051 60.6875 235.59 61.0391C235.137 61.3906 234.59 61.6797 233.949 61.9062C233.309 62.125 232.578 62.2344 231.758 62.2344Z" fill="#888888"/>
<path d="M109.93 86.0078V118H102.217V86.0078H109.93ZM119.554 86.0078V91.9624H92.813V86.0078H119.554ZM132.012 118.439C130.079 118.439 128.35 118.139 126.827 117.539C125.303 116.923 124.014 116.081 122.959 115.012C121.919 113.942 121.121 112.712 120.564 111.32C120.022 109.929 119.751 108.457 119.751 106.904V106.069C119.751 104.326 119.993 102.714 120.477 101.235C120.96 99.7407 121.678 98.437 122.63 97.3237C123.582 96.2104 124.776 95.3462 126.211 94.731C127.647 94.1011 129.317 93.7861 131.221 93.7861C132.906 93.7861 134.415 94.0571 135.748 94.5991C137.081 95.1411 138.208 95.9175 139.131 96.9282C140.069 97.939 140.779 99.1621 141.263 100.598C141.761 102.033 142.01 103.645 142.01 105.432V108.442H122.586V103.806H134.781V103.234C134.795 102.443 134.656 101.77 134.363 101.213C134.085 100.656 133.675 100.231 133.133 99.9385C132.591 99.6455 131.932 99.499 131.155 99.499C130.35 99.499 129.683 99.6748 129.156 100.026C128.643 100.378 128.24 100.861 127.947 101.477C127.669 102.077 127.471 102.773 127.354 103.564C127.237 104.355 127.178 105.19 127.178 106.069V106.904C127.178 107.783 127.295 108.581 127.53 109.299C127.779 110.017 128.13 110.632 128.584 111.145C129.053 111.643 129.61 112.031 130.254 112.309C130.914 112.587 131.661 112.727 132.496 112.727C133.506 112.727 134.502 112.536 135.484 112.155C136.465 111.774 137.308 111.145 138.011 110.266L141.373 114.265C140.889 114.953 140.201 115.62 139.307 116.264C138.428 116.909 137.374 117.436 136.143 117.846C134.913 118.242 133.536 118.439 132.012 118.439ZM155.062 112.727C155.75 112.727 156.336 112.602 156.819 112.353C157.317 112.089 157.691 111.723 157.94 111.254C158.204 110.771 158.328 110.192 158.313 109.519H165.279C165.293 111.306 164.854 112.873 163.96 114.221C163.082 115.554 161.88 116.594 160.357 117.341C158.848 118.073 157.142 118.439 155.237 118.439C153.377 118.439 151.751 118.139 150.359 117.539C148.968 116.923 147.803 116.074 146.866 114.99C145.943 113.891 145.247 112.609 144.778 111.145C144.324 109.68 144.097 108.09 144.097 106.376V105.871C144.097 104.157 144.324 102.568 144.778 101.103C145.247 99.6235 145.943 98.3418 146.866 97.2578C147.803 96.1592 148.96 95.3096 150.337 94.709C151.729 94.0938 153.348 93.7861 155.193 93.7861C157.171 93.7861 158.914 94.1597 160.423 94.9067C161.946 95.6538 163.14 96.7378 164.004 98.1587C164.869 99.5796 165.293 101.301 165.279 103.322H158.313C158.328 102.604 158.218 101.96 157.984 101.389C157.75 100.817 157.383 100.363 156.885 100.026C156.402 99.6748 155.779 99.499 155.018 99.499C154.256 99.499 153.641 99.6675 153.172 100.004C152.703 100.341 152.344 100.81 152.095 101.411C151.861 101.997 151.7 102.67 151.612 103.432C151.539 104.194 151.502 105.007 151.502 105.871V106.376C151.502 107.255 151.539 108.083 151.612 108.859C151.7 109.621 151.868 110.295 152.117 110.881C152.366 111.452 152.725 111.906 153.194 112.243C153.663 112.565 154.285 112.727 155.062 112.727ZM175.694 84.25V118H168.289V84.25H175.694ZM174.815 105.3L173.079 105.344C173.079 103.674 173.284 102.136 173.694 100.729C174.104 99.3232 174.69 98.1001 175.452 97.0601C176.214 96.02 177.129 95.2144 178.199 94.6431C179.268 94.0718 180.455 93.7861 181.758 93.7861C182.93 93.7861 184 93.9546 184.966 94.2915C185.948 94.6284 186.79 95.1704 187.493 95.9175C188.211 96.6646 188.76 97.6387 189.141 98.8398C189.537 100.041 189.734 101.506 189.734 103.234V118H182.286V103.19C182.286 102.224 182.146 101.477 181.868 100.949C181.604 100.407 181.224 100.034 180.726 99.8286C180.228 99.6089 179.62 99.499 178.902 99.499C178.038 99.499 177.334 99.6455 176.792 99.9385C176.25 100.231 175.833 100.642 175.54 101.169C175.262 101.682 175.071 102.29 174.969 102.993C174.866 103.696 174.815 104.465 174.815 105.3ZM221.88 109.497C221.88 108.999 221.807 108.552 221.661 108.156C221.514 107.746 221.243 107.365 220.848 107.014C220.452 106.662 219.881 106.311 219.134 105.959C218.401 105.593 217.435 105.212 216.233 104.816C214.827 104.348 213.472 103.82 212.168 103.234C210.865 102.634 209.7 101.938 208.675 101.147C207.649 100.341 206.836 99.4038 206.236 98.3345C205.635 97.2505 205.335 95.9907 205.335 94.5552C205.335 93.1782 205.643 91.9404 206.258 90.8418C206.873 89.7285 207.73 88.7837 208.829 88.0073C209.942 87.2163 211.246 86.6157 212.74 86.2056C214.234 85.7808 215.867 85.5684 217.64 85.5684C219.983 85.5684 222.049 85.9785 223.836 86.7988C225.638 87.6045 227.044 88.7544 228.055 90.2485C229.08 91.728 229.593 93.4785 229.593 95.5H221.924C221.924 94.6943 221.756 93.9839 221.419 93.3687C221.097 92.7534 220.606 92.27 219.947 91.9185C219.288 91.5669 218.46 91.3911 217.464 91.3911C216.497 91.3911 215.684 91.5376 215.025 91.8306C214.366 92.1235 213.868 92.519 213.531 93.0171C213.194 93.5005 213.025 94.0352 213.025 94.6211C213.025 95.1045 213.157 95.5439 213.421 95.9395C213.699 96.3203 214.087 96.6792 214.585 97.0161C215.098 97.353 215.713 97.6753 216.431 97.9829C217.164 98.2905 217.984 98.5908 218.892 98.8838C220.591 99.4258 222.1 100.034 223.418 100.708C224.751 101.367 225.872 102.121 226.78 102.971C227.703 103.806 228.399 104.758 228.868 105.827C229.351 106.896 229.593 108.105 229.593 109.453C229.593 110.888 229.314 112.163 228.758 113.276C228.201 114.389 227.403 115.334 226.363 116.11C225.323 116.872 224.078 117.451 222.627 117.846C221.177 118.242 219.559 118.439 217.771 118.439C216.131 118.439 214.512 118.234 212.916 117.824C211.333 117.399 209.898 116.755 208.609 115.891C207.32 115.012 206.287 113.891 205.511 112.529C204.749 111.152 204.368 109.519 204.368 107.629H212.103C212.103 108.566 212.227 109.357 212.476 110.002C212.725 110.646 213.091 111.167 213.575 111.562C214.058 111.943 214.651 112.221 215.354 112.397C216.058 112.558 216.863 112.639 217.771 112.639C218.753 112.639 219.544 112.5 220.145 112.221C220.745 111.928 221.185 111.547 221.463 111.079C221.741 110.595 221.88 110.068 221.88 109.497ZM245.743 94.2256V99.3672H231.417V94.2256H245.743ZM234.427 88.3149H241.832V110.244C241.832 110.874 241.905 111.364 242.051 111.716C242.198 112.053 242.447 112.294 242.798 112.441C243.165 112.573 243.648 112.639 244.249 112.639C244.673 112.639 245.025 112.631 245.303 112.617C245.582 112.587 245.845 112.551 246.094 112.507V117.802C245.464 118.007 244.805 118.161 244.117 118.264C243.428 118.381 242.696 118.439 241.919 118.439C240.337 118.439 238.982 118.19 237.854 117.692C236.741 117.194 235.892 116.411 235.306 115.341C234.72 114.272 234.427 112.88 234.427 111.167V88.3149ZM261.036 112.023V102.224C261.036 101.55 260.94 100.971 260.75 100.488C260.56 100.004 260.259 99.6309 259.849 99.3672C259.439 99.0889 258.89 98.9497 258.201 98.9497C257.645 98.9497 257.168 99.0449 256.773 99.2354C256.377 99.4258 256.077 99.7114 255.872 100.092C255.667 100.473 255.564 100.957 255.564 101.542H248.16C248.16 100.444 248.401 99.4258 248.885 98.4883C249.383 97.5361 250.086 96.7085 250.994 96.0054C251.917 95.3022 253.016 94.7603 254.29 94.3794C255.579 93.9839 257.015 93.7861 258.597 93.7861C260.486 93.7861 262.171 94.1011 263.65 94.731C265.145 95.3608 266.324 96.3057 267.188 97.5654C268.052 98.8105 268.484 100.378 268.484 102.268V112.001C268.484 113.554 268.572 114.733 268.748 115.539C268.924 116.33 269.173 117.026 269.495 117.626V118H262.068C261.717 117.268 261.453 116.374 261.277 115.319C261.116 114.25 261.036 113.151 261.036 112.023ZM261.937 103.476L261.98 107.431H258.707C258.018 107.431 257.432 107.526 256.949 107.717C256.48 107.907 256.099 108.171 255.806 108.508C255.528 108.83 255.323 109.196 255.191 109.606C255.074 110.017 255.015 110.449 255.015 110.903C255.015 111.342 255.118 111.738 255.323 112.089C255.542 112.426 255.835 112.69 256.202 112.88C256.568 113.071 256.978 113.166 257.432 113.166C258.252 113.166 258.948 113.012 259.52 112.705C260.105 112.382 260.552 111.994 260.86 111.54C261.167 111.086 261.321 110.661 261.321 110.266L262.947 113.298C262.654 113.884 262.317 114.477 261.937 115.078C261.57 115.678 261.109 116.235 260.552 116.748C260.01 117.246 259.344 117.656 258.553 117.978C257.762 118.286 256.802 118.439 255.674 118.439C254.209 118.439 252.862 118.139 251.631 117.539C250.416 116.938 249.441 116.103 248.709 115.034C247.977 113.95 247.61 112.705 247.61 111.298C247.61 110.068 247.83 108.969 248.27 108.002C248.724 107.036 249.405 106.215 250.313 105.542C251.221 104.868 252.378 104.355 253.785 104.003C255.191 103.652 256.846 103.476 258.75 103.476H261.937ZM282.635 112.727C283.323 112.727 283.909 112.602 284.393 112.353C284.891 112.089 285.264 111.723 285.513 111.254C285.777 110.771 285.901 110.192 285.887 109.519H292.852C292.867 111.306 292.427 112.873 291.534 114.221C290.655 115.554 289.454 116.594 287.93 117.341C286.421 118.073 284.715 118.439 282.811 118.439C280.95 118.439 279.324 118.139 277.933 117.539C276.541 116.923 275.376 116.074 274.439 114.99C273.516 113.891 272.82 112.609 272.352 111.145C271.897 109.68 271.67 108.09 271.67 106.376V105.871C271.67 104.157 271.897 102.568 272.352 101.103C272.82 99.6235 273.516 98.3418 274.439 97.2578C275.376 96.1592 276.534 95.3096 277.911 94.709C279.302 94.0938 280.921 93.7861 282.767 93.7861C284.744 93.7861 286.487 94.1597 287.996 94.9067C289.52 95.6538 290.713 96.7378 291.578 98.1587C292.442 99.5796 292.867 101.301 292.852 103.322H285.887C285.901 102.604 285.792 101.96 285.557 101.389C285.323 100.817 284.957 100.363 284.458 100.026C283.975 99.6748 283.353 99.499 282.591 99.499C281.829 99.499 281.214 99.6675 280.745 100.004C280.276 100.341 279.917 100.81 279.668 101.411C279.434 101.997 279.273 102.67 279.185 103.432C279.112 104.194 279.075 105.007 279.075 105.871V106.376C279.075 107.255 279.112 108.083 279.185 108.859C279.273 109.621 279.441 110.295 279.69 110.881C279.939 111.452 280.298 111.906 280.767 112.243C281.236 112.565 281.858 112.727 282.635 112.727ZM303.487 84.228V118H296.082V84.228H303.487ZM318.692 94.2256L308.365 106.333L302.959 111.738L299.729 107.036L304.234 101.169L309.815 94.2256H318.692ZM310.76 118L304.41 107.167L309.881 103.278L319.241 118H310.76Z" fill="#424241"/>
<path d="M1363 15C1363 6.71573 1356.28 0 1348 0H1134V167H1348C1356.28 167 1363 160.284 1363 152V15Z" fill="#7E0F6D"/>
<path fill-rule="evenodd" clip-rule="evenodd" d="M1218.5 55C1218.37 55 1218.24 55.0527 1218.15 55.1464C1218.05 55.2402 1218 55.3674 1218 55.5V111.5C1218 111.633 1218.05 111.76 1218.15 111.854C1218.24 111.947 1218.37 112 1218.5 112H1278C1278.13 112 1278.26 111.947 1278.35 111.854C1278.45 111.76 1278.5 111.633 1278.5 111.5V66C1278.5 65.8674 1278.45 65.7402 1278.35 65.6464C1278.26 65.5527 1278.13 65.5 1278 65.5H1248.25C1247.36 65.5 1246.52 65.1045 1245.95 64.4206L1238.09 55H1218.5ZM1213.9 50.9038C1215.12 49.6848 1216.78 49 1218.5 49H1239.5C1240.39 49 1241.23 49.3955 1241.8 50.0794L1249.66 59.5H1278C1279.72 59.5 1281.38 60.1848 1282.6 61.4038C1283.82 62.6228 1284.5 64.2761 1284.5 66V111.5C1284.5 113.224 1283.82 114.877 1282.6 116.096C1281.38 117.315 1279.72 118 1278 118H1218.5C1216.78 118 1215.12 117.315 1213.9 116.096C1212.68 114.877 1212 113.224 1212 111.5V55.5C1212 53.7761 1212.68 52.1228 1213.9 50.9038Z" fill="white"/>
<path fill-rule="evenodd" clip-rule="evenodd" d="M1243.72 77.5251C1245.09 78.892 1245.09 81.108 1243.72 82.4749L1237.45 88.75L1243.72 95.0251C1245.09 96.392 1245.09 98.608 1243.72 99.9749C1242.36 101.342 1240.14 101.342 1238.78 99.9749L1230.03 91.2249C1228.66 89.858 1228.66 87.642 1230.03 86.2751L1238.78 77.5251C1240.14 76.1583 1242.36 76.1583 1243.72 77.5251Z" fill="white"/>
<path fill-rule="evenodd" clip-rule="evenodd" d="M1252.03 99.9749C1250.66 98.608 1250.66 96.392 1252.03 95.0251L1258.3 88.75L1252.03 82.4749C1250.66 81.108 1250.66 78.892 1252.03 77.5251C1253.39 76.1583 1255.61 76.1583 1256.97 77.5251L1265.72 86.2751C1267.09 87.642 1267.09 89.858 1265.72 91.2249L1256.97 99.9749C1255.61 101.342 1253.39 101.342 1252.03 99.9749Z" fill="white"/>
</svg>
