<svg width="1363" height="167" viewBox="0 0 1363 167" fill="none" xmlns="http://www.w3.org/2000/svg">
<rect width="1363" height="167" rx="15" fill="#F0F0F0"/>
<path d="M0 15C0 6.71573 6.71573 0 15 0H37V167H15C6.71573 167 0 160.284 0 152V15Z" fill="#424241"/>
<path d="M100.906 54.9219L93.3945 52.2383V49.0859L103.602 53.375V55.6367L100.906 54.9219ZM93.3945 57.1719L100.918 54.4297L103.602 53.7852V56.0352L93.3945 60.3242V57.1719ZM115.414 44.9375V62H111.898V44.9375H115.414ZM122.211 52.2266V54.9688H114.453V52.2266H122.211ZM123.031 44.9375V47.6914H114.453V44.9375H123.031ZM124.062 55.7891V55.543C124.062 54.6133 124.195 53.7578 124.461 52.9766C124.727 52.1875 125.113 51.5039 125.621 50.9258C126.129 50.3477 126.754 49.8984 127.496 49.5781C128.238 49.25 129.09 49.0859 130.051 49.0859C131.012 49.0859 131.867 49.25 132.617 49.5781C133.367 49.8984 133.996 50.3477 134.504 50.9258C135.02 51.5039 135.41 52.1875 135.676 52.9766C135.941 53.7578 136.074 54.6133 136.074 55.543V55.7891C136.074 56.7109 135.941 57.5664 135.676 58.3555C135.41 59.1367 135.02 59.8203 134.504 60.4062C133.996 60.9844 133.371 61.4336 132.629 61.7539C131.887 62.0742 131.035 62.2344 130.074 62.2344C129.113 62.2344 128.258 62.0742 127.508 61.7539C126.766 61.4336 126.137 60.9844 125.621 60.4062C125.113 59.8203 124.727 59.1367 124.461 58.3555C124.195 57.5664 124.062 56.7109 124.062 55.7891ZM127.438 55.543V55.7891C127.438 56.3203 127.484 56.8164 127.578 57.2773C127.672 57.7383 127.82 58.1445 128.023 58.4961C128.234 58.8398 128.508 59.1094 128.844 59.3047C129.18 59.5 129.59 59.5977 130.074 59.5977C130.543 59.5977 130.945 59.5 131.281 59.3047C131.617 59.1094 131.887 58.8398 132.09 58.4961C132.293 58.1445 132.441 57.7383 132.535 57.2773C132.637 56.8164 132.688 56.3203 132.688 55.7891V55.543C132.688 55.0273 132.637 54.543 132.535 54.0898C132.441 53.6289 132.289 53.2227 132.078 52.8711C131.875 52.5117 131.605 52.2305 131.27 52.0273C130.934 51.8242 130.527 51.7227 130.051 51.7227C129.574 51.7227 129.168 51.8242 128.832 52.0273C128.504 52.2305 128.234 52.5117 128.023 52.8711C127.82 53.2227 127.672 53.6289 127.578 54.0898C127.484 54.543 127.438 55.0273 127.438 55.543ZM137.609 55.7891V55.543C137.609 54.6133 137.742 53.7578 138.008 52.9766C138.273 52.1875 138.66 51.5039 139.168 50.9258C139.676 50.3477 140.301 49.8984 141.043 49.5781C141.785 49.25 142.637 49.0859 143.598 49.0859C144.559 49.0859 145.414 49.25 146.164 49.5781C146.914 49.8984 147.543 50.3477 148.051 50.9258C148.566 51.5039 148.957 52.1875 149.223 52.9766C149.488 53.7578 149.621 54.6133 149.621 55.543V55.7891C149.621 56.7109 149.488 57.5664 149.223 58.3555C148.957 59.1367 148.566 59.8203 148.051 60.4062C147.543 60.9844 146.918 61.4336 146.176 61.7539C145.434 62.0742 144.582 62.2344 143.621 62.2344C142.66 62.2344 141.805 62.0742 141.055 61.7539C140.312 61.4336 139.684 60.9844 139.168 60.4062C138.66 59.8203 138.273 59.1367 138.008 58.3555C137.742 57.5664 137.609 56.7109 137.609 55.7891ZM140.984 55.543V55.7891C140.984 56.3203 141.031 56.8164 141.125 57.2773C141.219 57.7383 141.367 58.1445 141.57 58.4961C141.781 58.8398 142.055 59.1094 142.391 59.3047C142.727 59.5 143.137 59.5977 143.621 59.5977C144.09 59.5977 144.492 59.5 144.828 59.3047C145.164 59.1094 145.434 58.8398 145.637 58.4961C145.84 58.1445 145.988 57.7383 146.082 57.2773C146.184 56.8164 146.234 56.3203 146.234 55.7891V55.543C146.234 55.0273 146.184 54.543 146.082 54.0898C145.988 53.6289 145.836 53.2227 145.625 52.8711C145.422 52.5117 145.152 52.2305 144.816 52.0273C144.48 51.8242 144.074 51.7227 143.598 51.7227C143.121 51.7227 142.715 51.8242 142.379 52.0273C142.051 52.2305 141.781 52.5117 141.57 52.8711C141.367 53.2227 141.219 53.6289 141.125 54.0898C141.031 54.543 140.984 55.0273 140.984 55.543ZM159.184 59.2344V44H162.582V62H159.523L159.184 59.2344ZM151.168 55.8125V55.5664C151.168 54.5977 151.277 53.7188 151.496 52.9297C151.715 52.1328 152.035 51.4492 152.457 50.8789C152.879 50.3086 153.398 49.8672 154.016 49.5547C154.633 49.2422 155.336 49.0859 156.125 49.0859C156.867 49.0859 157.516 49.2422 158.07 49.5547C158.633 49.8672 159.109 50.3125 159.5 50.8906C159.898 51.4609 160.219 52.1367 160.461 52.918C160.703 53.6914 160.879 54.5391 160.988 55.4609V56C160.879 56.8828 160.703 57.7031 160.461 58.4609C160.219 59.2188 159.898 59.8828 159.5 60.4531C159.109 61.0156 158.633 61.4531 158.07 61.7656C157.508 62.0781 156.852 62.2344 156.102 62.2344C155.312 62.2344 154.609 62.0742 153.992 61.7539C153.383 61.4336 152.867 60.9844 152.445 60.4062C152.031 59.8281 151.715 59.1484 151.496 58.3672C151.277 57.5859 151.168 56.7344 151.168 55.8125ZM154.543 55.5664V55.8125C154.543 56.3359 154.582 56.8242 154.66 57.2773C154.746 57.7305 154.883 58.1328 155.07 58.4844C155.266 58.8281 155.516 59.0977 155.82 59.293C156.133 59.4805 156.512 59.5742 156.957 59.5742C157.535 59.5742 158.012 59.4453 158.387 59.1875C158.762 58.9219 159.047 58.5586 159.242 58.0977C159.445 57.6367 159.562 57.1055 159.594 56.5039V54.9688C159.57 54.4766 159.5 54.0352 159.383 53.6445C159.273 53.2461 159.109 52.9062 158.891 52.625C158.68 52.3438 158.414 52.125 158.094 51.9688C157.781 51.8125 157.41 51.7344 156.98 51.7344C156.543 51.7344 156.168 51.8359 155.855 52.0391C155.543 52.2344 155.289 52.5039 155.094 52.8477C154.906 53.1914 154.766 53.5977 154.672 54.0664C154.586 54.5273 154.543 55.0273 154.543 55.5664ZM165.43 44.9375H171.793C173.098 44.9375 174.219 45.1328 175.156 45.5234C176.102 45.9141 176.828 46.4922 177.336 47.2578C177.844 48.0234 178.098 48.9648 178.098 50.082C178.098 50.9961 177.941 51.7812 177.629 52.4375C177.324 53.0859 176.891 53.6289 176.328 54.0664C175.773 54.4961 175.121 54.8398 174.371 55.0977L173.258 55.6836H167.727L167.703 52.9414H171.816C172.434 52.9414 172.945 52.832 173.352 52.6133C173.758 52.3945 174.062 52.0898 174.266 51.6992C174.477 51.3086 174.582 50.8555 174.582 50.3398C174.582 49.793 174.48 49.3203 174.277 48.9219C174.074 48.5234 173.766 48.2188 173.352 48.0078C172.938 47.7969 172.418 47.6914 171.793 47.6914H168.945V62H165.43V44.9375ZM174.969 62L171.078 54.3945L174.793 54.3711L178.73 61.8359V62H174.969ZM186.43 62.2344C185.445 62.2344 184.562 62.0781 183.781 61.7656C183 61.4453 182.336 61.0039 181.789 60.4414C181.25 59.8789 180.836 59.2266 180.547 58.4844C180.258 57.7344 180.113 56.9375 180.113 56.0938V55.625C180.113 54.6641 180.25 53.7852 180.523 52.9883C180.797 52.1914 181.188 51.5 181.695 50.9141C182.211 50.3281 182.836 49.8789 183.57 49.5664C184.305 49.2461 185.133 49.0859 186.055 49.0859C186.953 49.0859 187.75 49.2344 188.445 49.5312C189.141 49.8281 189.723 50.25 190.191 50.7969C190.668 51.3438 191.027 52 191.27 52.7656C191.512 53.5234 191.633 54.3672 191.633 55.2969V56.7031H181.555V54.4531H188.316V54.1953C188.316 53.7266 188.23 53.3086 188.059 52.9414C187.895 52.5664 187.645 52.2695 187.309 52.0508C186.973 51.832 186.543 51.7227 186.02 51.7227C185.574 51.7227 185.191 51.8203 184.871 52.0156C184.551 52.2109 184.289 52.4844 184.086 52.8359C183.891 53.1875 183.742 53.6016 183.641 54.0781C183.547 54.5469 183.5 55.0625 183.5 55.625V56.0938C183.5 56.6016 183.57 57.0703 183.711 57.5C183.859 57.9297 184.066 58.3008 184.332 58.6133C184.605 58.9258 184.934 59.168 185.316 59.3398C185.707 59.5117 186.148 59.5977 186.641 59.5977C187.25 59.5977 187.816 59.4805 188.34 59.2461C188.871 59.0039 189.328 58.6406 189.711 58.1562L191.352 59.9375C191.086 60.3203 190.723 60.6875 190.262 61.0391C189.809 61.3906 189.262 61.6797 188.621 61.9062C187.98 62.125 187.25 62.2344 186.43 62.2344ZM198.793 59.5977C199.207 59.5977 199.574 59.5195 199.895 59.3633C200.215 59.1992 200.465 58.9727 200.645 58.6836C200.832 58.3867 200.93 58.0391 200.938 57.6406H204.113C204.105 58.5312 203.867 59.3242 203.398 60.0195C202.93 60.707 202.301 61.25 201.512 61.6484C200.723 62.0391 199.84 62.2344 198.863 62.2344C197.879 62.2344 197.02 62.0703 196.285 61.7422C195.559 61.4141 194.953 60.9609 194.469 60.3828C193.984 59.7969 193.621 59.1172 193.379 58.3438C193.137 57.5625 193.016 56.7266 193.016 55.8359V55.4961C193.016 54.5977 193.137 53.7617 193.379 52.9883C193.621 52.207 193.984 51.5273 194.469 50.9492C194.953 50.3633 195.559 49.9062 196.285 49.5781C197.012 49.25 197.863 49.0859 198.84 49.0859C199.879 49.0859 200.789 49.2852 201.57 49.6836C202.359 50.082 202.977 50.6523 203.422 51.3945C203.875 52.1289 204.105 53 204.113 54.0078H200.938C200.93 53.5859 200.84 53.2031 200.668 52.8594C200.504 52.5156 200.262 52.2422 199.941 52.0391C199.629 51.8281 199.242 51.7227 198.781 51.7227C198.289 51.7227 197.887 51.8281 197.574 52.0391C197.262 52.2422 197.02 52.5234 196.848 52.8828C196.676 53.2344 196.555 53.6367 196.484 54.0898C196.422 54.5352 196.391 55.0039 196.391 55.4961V55.8359C196.391 56.3281 196.422 56.8008 196.484 57.2539C196.547 57.707 196.664 58.1094 196.836 58.4609C197.016 58.8125 197.262 59.0898 197.574 59.293C197.887 59.4961 198.293 59.5977 198.793 59.5977ZM209.633 49.3203V62H206.246V49.3203H209.633ZM206.035 46.0156C206.035 45.5234 206.207 45.1172 206.551 44.7969C206.895 44.4766 207.355 44.3164 207.934 44.3164C208.504 44.3164 208.961 44.4766 209.305 44.7969C209.656 45.1172 209.832 45.5234 209.832 46.0156C209.832 46.5078 209.656 46.9141 209.305 47.2344C208.961 47.5547 208.504 47.7148 207.934 47.7148C207.355 47.7148 206.895 47.5547 206.551 47.2344C206.207 46.9141 206.035 46.5078 206.035 46.0156ZM215.797 51.7578V66.875H212.422V49.3203H215.551L215.797 51.7578ZM223.824 55.5195V55.7656C223.824 56.6875 223.715 57.543 223.496 58.332C223.285 59.1211 222.973 59.8086 222.559 60.3945C222.145 60.9727 221.629 61.4258 221.012 61.7539C220.402 62.0742 219.699 62.2344 218.902 62.2344C218.129 62.2344 217.457 62.0781 216.887 61.7656C216.316 61.4531 215.836 61.0156 215.445 60.4531C215.062 59.8828 214.754 59.2227 214.52 58.4727C214.285 57.7227 214.105 56.918 213.98 56.0586V55.4141C214.105 54.4922 214.285 53.6484 214.52 52.8828C214.754 52.1094 215.062 51.4414 215.445 50.8789C215.836 50.3086 216.312 49.8672 216.875 49.5547C217.445 49.2422 218.113 49.0859 218.879 49.0859C219.684 49.0859 220.391 49.2383 221 49.543C221.617 49.8477 222.133 50.2852 222.547 50.8555C222.969 51.4258 223.285 52.1055 223.496 52.8945C223.715 53.6836 223.824 54.5586 223.824 55.5195ZM220.438 55.7656V55.5195C220.438 54.9805 220.391 54.4844 220.297 54.0312C220.211 53.5703 220.07 53.168 219.875 52.8242C219.688 52.4805 219.438 52.2148 219.125 52.0273C218.82 51.832 218.449 51.7344 218.012 51.7344C217.551 51.7344 217.156 51.8086 216.828 51.957C216.508 52.1055 216.246 52.3203 216.043 52.6016C215.84 52.8828 215.688 53.2188 215.586 53.6094C215.484 54 215.422 54.4414 215.398 54.9336V56.5625C215.438 57.1406 215.547 57.6602 215.727 58.1211C215.906 58.5742 216.184 58.9336 216.559 59.1992C216.934 59.4648 217.426 59.5977 218.035 59.5977C218.48 59.5977 218.855 59.5 219.16 59.3047C219.465 59.1016 219.711 58.8242 219.898 58.4727C220.094 58.1211 220.23 57.7148 220.309 57.2539C220.395 56.793 220.438 56.2969 220.438 55.7656ZM231.758 62.2344C230.773 62.2344 229.891 62.0781 229.109 61.7656C228.328 61.4453 227.664 61.0039 227.117 60.4414C226.578 59.8789 226.164 59.2266 225.875 58.4844C225.586 57.7344 225.441 56.9375 225.441 56.0938V55.625C225.441 54.6641 225.578 53.7852 225.852 52.9883C226.125 52.1914 226.516 51.5 227.023 50.9141C227.539 50.3281 228.164 49.8789 228.898 49.5664C229.633 49.2461 230.461 49.0859 231.383 49.0859C232.281 49.0859 233.078 49.2344 233.773 49.5312C234.469 49.8281 235.051 50.25 235.52 50.7969C235.996 51.3438 236.355 52 236.598 52.7656C236.84 53.5234 236.961 54.3672 236.961 55.2969V56.7031H226.883V54.4531H233.645V54.1953C233.645 53.7266 233.559 53.3086 233.387 52.9414C233.223 52.5664 232.973 52.2695 232.637 52.0508C232.301 51.832 231.871 51.7227 231.348 51.7227C230.902 51.7227 230.52 51.8203 230.199 52.0156C229.879 52.2109 229.617 52.4844 229.414 52.8359C229.219 53.1875 229.07 53.6016 228.969 54.0781C228.875 54.5469 228.828 55.0625 228.828 55.625V56.0938C228.828 56.6016 228.898 57.0703 229.039 57.5C229.188 57.9297 229.395 58.3008 229.66 58.6133C229.934 58.9258 230.262 59.168 230.645 59.3398C231.035 59.5117 231.477 59.5977 231.969 59.5977C232.578 59.5977 233.145 59.4805 233.668 59.2461C234.199 59.0039 234.656 58.6406 235.039 58.1562L236.68 59.9375C236.414 60.3203 236.051 60.6875 235.59 61.0391C235.137 61.3906 234.59 61.6797 233.949 61.9062C233.309 62.125 232.578 62.2344 231.758 62.2344Z" fill="#888888"/>
<path d="M107.205 107.146H99.251V101.191H107.205C108.289 101.191 109.168 101.008 109.842 100.642C110.516 100.275 111.006 99.77 111.314 99.1255C111.636 98.4663 111.797 97.7266 111.797 96.9062C111.797 96.0273 111.636 95.2144 111.314 94.4673C111.006 93.7202 110.516 93.1196 109.842 92.6655C109.168 92.1968 108.289 91.9624 107.205 91.9624H102.151V118H94.439V86.0078H107.205C109.769 86.0078 111.973 86.4766 113.819 87.4141C115.679 88.3516 117.107 89.6406 118.104 91.2812C119.1 92.9072 119.598 94.7676 119.598 96.8623C119.598 98.9277 119.1 100.729 118.104 102.268C117.107 103.806 115.679 105.007 113.819 105.871C111.973 106.721 109.769 107.146 107.205 107.146ZM130.87 100.114V118H123.465V94.2256H130.386L130.87 100.114ZM137.901 94.0498L137.769 100.927C137.476 100.898 137.081 100.861 136.583 100.817C136.084 100.773 135.667 100.751 135.33 100.751C134.466 100.751 133.719 100.854 133.089 101.059C132.474 101.25 131.961 101.542 131.551 101.938C131.155 102.319 130.862 102.802 130.672 103.388C130.496 103.974 130.416 104.655 130.43 105.432L129.09 104.553C129.09 102.956 129.244 101.506 129.551 100.202C129.874 98.8838 130.328 97.7485 130.914 96.7964C131.5 95.8296 132.21 95.0898 133.045 94.5771C133.88 94.0498 134.817 93.7861 135.857 93.7861C136.224 93.7861 136.583 93.8081 136.934 93.8521C137.3 93.896 137.623 93.9619 137.901 94.0498ZM138.736 106.354V105.893C138.736 104.15 138.985 102.546 139.483 101.081C139.981 99.6016 140.713 98.3198 141.68 97.2358C142.647 96.1519 143.841 95.3096 145.262 94.709C146.683 94.0938 148.323 93.7861 150.184 93.7861C152.059 93.7861 153.707 94.0938 155.127 94.709C156.563 95.3096 157.764 96.1519 158.731 97.2358C159.698 98.3198 160.43 99.6016 160.928 101.081C161.426 102.546 161.675 104.15 161.675 105.893V106.354C161.675 108.083 161.426 109.687 160.928 111.167C160.43 112.631 159.698 113.913 158.731 115.012C157.764 116.096 156.57 116.938 155.149 117.539C153.729 118.139 152.088 118.439 150.228 118.439C148.367 118.439 146.719 118.139 145.284 117.539C143.848 116.938 142.647 116.096 141.68 115.012C140.713 113.913 139.981 112.631 139.483 111.167C138.985 109.687 138.736 108.083 138.736 106.354ZM146.141 105.893V106.354C146.141 107.248 146.207 108.083 146.338 108.859C146.47 109.636 146.69 110.317 146.998 110.903C147.305 111.474 147.723 111.921 148.25 112.243C148.777 112.565 149.437 112.727 150.228 112.727C151.004 112.727 151.648 112.565 152.161 112.243C152.688 111.921 153.106 111.474 153.414 110.903C153.721 110.317 153.941 109.636 154.073 108.859C154.205 108.083 154.271 107.248 154.271 106.354V105.893C154.271 105.029 154.205 104.216 154.073 103.454C153.941 102.678 153.721 101.997 153.414 101.411C153.106 100.81 152.688 100.341 152.161 100.004C151.634 99.6675 150.975 99.499 150.184 99.499C149.407 99.499 148.755 99.6675 148.228 100.004C147.715 100.341 147.305 100.81 146.998 101.411C146.69 101.997 146.47 102.678 146.338 103.454C146.207 104.216 146.141 105.029 146.141 105.893ZM177.496 94.2256V99.3672H163.169V94.2256H177.496ZM166.18 88.3149H173.584V110.244C173.584 110.874 173.658 111.364 173.804 111.716C173.951 112.053 174.2 112.294 174.551 112.441C174.917 112.573 175.401 112.639 176.001 112.639C176.426 112.639 176.778 112.631 177.056 112.617C177.334 112.587 177.598 112.551 177.847 112.507V117.802C177.217 118.007 176.558 118.161 175.87 118.264C175.181 118.381 174.449 118.439 173.672 118.439C172.09 118.439 170.735 118.19 169.607 117.692C168.494 117.194 167.645 116.411 167.059 115.341C166.473 114.272 166.18 112.88 166.18 111.167V88.3149ZM178.858 106.354V105.893C178.858 104.15 179.107 102.546 179.605 101.081C180.103 99.6016 180.835 98.3198 181.802 97.2358C182.769 96.1519 183.963 95.3096 185.384 94.709C186.805 94.0938 188.445 93.7861 190.306 93.7861C192.181 93.7861 193.829 94.0938 195.25 94.709C196.685 95.3096 197.886 96.1519 198.853 97.2358C199.82 98.3198 200.552 99.6016 201.05 101.081C201.548 102.546 201.797 104.15 201.797 105.893V106.354C201.797 108.083 201.548 109.687 201.05 111.167C200.552 112.631 199.82 113.913 198.853 115.012C197.886 116.096 196.692 116.938 195.271 117.539C193.851 118.139 192.21 118.439 190.35 118.439C188.489 118.439 186.841 118.139 185.406 117.539C183.97 116.938 182.769 116.096 181.802 115.012C180.835 113.913 180.103 112.631 179.605 111.167C179.107 109.687 178.858 108.083 178.858 106.354ZM186.263 105.893V106.354C186.263 107.248 186.329 108.083 186.46 108.859C186.592 109.636 186.812 110.317 187.12 110.903C187.427 111.474 187.845 111.921 188.372 112.243C188.899 112.565 189.559 112.727 190.35 112.727C191.126 112.727 191.771 112.565 192.283 112.243C192.811 111.921 193.228 111.474 193.536 110.903C193.843 110.317 194.063 109.636 194.195 108.859C194.327 108.083 194.393 107.248 194.393 106.354V105.893C194.393 105.029 194.327 104.216 194.195 103.454C194.063 102.678 193.843 101.997 193.536 101.411C193.228 100.81 192.811 100.341 192.283 100.004C191.756 99.6675 191.097 99.499 190.306 99.499C189.529 99.499 188.877 99.6675 188.35 100.004C187.837 100.341 187.427 100.81 187.12 101.411C186.812 101.997 186.592 102.678 186.46 103.454C186.329 104.216 186.263 105.029 186.263 105.893ZM217.618 94.2256V99.3672H203.292V94.2256H217.618ZM206.302 88.3149H213.707V110.244C213.707 110.874 213.78 111.364 213.926 111.716C214.073 112.053 214.322 112.294 214.673 112.441C215.04 112.573 215.523 112.639 216.124 112.639C216.548 112.639 216.9 112.631 217.178 112.617C217.457 112.587 217.72 112.551 217.969 112.507V117.802C217.339 118.007 216.68 118.161 215.992 118.264C215.303 118.381 214.571 118.439 213.794 118.439C212.212 118.439 210.857 118.19 209.729 117.692C208.616 117.194 207.767 116.411 207.181 115.341C206.595 114.272 206.302 112.88 206.302 111.167V88.3149ZM227.857 115.209L234.009 94.2256H241.963L232.405 121.538C232.2 122.138 231.929 122.783 231.592 123.471C231.255 124.174 230.794 124.841 230.208 125.471C229.622 126.101 228.868 126.613 227.945 127.009C227.037 127.404 225.909 127.602 224.561 127.602C223.843 127.602 223.316 127.565 222.979 127.492C222.657 127.434 222.159 127.324 221.485 127.163V121.867C221.675 121.867 221.836 121.867 221.968 121.867C222.115 121.867 222.276 121.867 222.452 121.867C223.243 121.867 223.873 121.787 224.341 121.625C224.825 121.464 225.191 121.23 225.44 120.922C225.704 120.615 225.909 120.241 226.055 119.802L227.857 115.209ZM226.297 94.2256L230.977 110.859L231.79 118.703H226.824L218.365 94.2256H226.297ZM251.368 98.7959V127.141H243.963V94.2256H250.862L251.368 98.7959ZM265.958 105.827V106.289C265.958 108.017 265.76 109.621 265.364 111.101C264.969 112.58 264.383 113.869 263.606 114.968C262.83 116.066 261.863 116.923 260.706 117.539C259.563 118.139 258.238 118.439 256.729 118.439C255.308 118.439 254.085 118.125 253.06 117.495C252.034 116.865 251.177 115.993 250.489 114.88C249.8 113.767 249.244 112.492 248.819 111.057C248.394 109.621 248.057 108.105 247.808 106.508V105.915C248.057 104.201 248.394 102.612 248.819 101.147C249.244 99.6675 249.8 98.3784 250.489 97.2798C251.177 96.1812 252.027 95.3242 253.038 94.709C254.063 94.0938 255.286 93.7861 256.707 93.7861C258.216 93.7861 259.542 94.0718 260.684 94.6431C261.841 95.2144 262.808 96.0347 263.584 97.104C264.375 98.1587 264.969 99.4258 265.364 100.905C265.76 102.385 265.958 104.025 265.958 105.827ZM258.553 106.289V105.827C258.553 104.904 258.487 104.062 258.355 103.3C258.223 102.524 258.011 101.85 257.718 101.279C257.439 100.708 257.066 100.268 256.597 99.9604C256.128 99.6528 255.55 99.499 254.861 99.499C254.07 99.499 253.404 99.6235 252.862 99.8726C252.334 100.107 251.91 100.473 251.587 100.971C251.28 101.455 251.06 102.062 250.928 102.795C250.811 103.513 250.76 104.355 250.774 105.322V107.124C250.745 108.237 250.855 109.218 251.104 110.068C251.353 110.903 251.785 111.555 252.4 112.023C253.016 112.492 253.851 112.727 254.905 112.727C255.608 112.727 256.194 112.565 256.663 112.243C257.132 111.906 257.505 111.445 257.784 110.859C258.062 110.258 258.26 109.57 258.377 108.793C258.494 108.017 258.553 107.182 258.553 106.289ZM277.076 94.2256V118H269.649V94.2256H277.076ZM269.209 88.0952C269.209 87.0405 269.59 86.1763 270.352 85.5024C271.114 84.8286 272.103 84.4917 273.318 84.4917C274.534 84.4917 275.523 84.8286 276.285 85.5024C277.046 86.1763 277.427 87.0405 277.427 88.0952C277.427 89.1499 277.046 90.0142 276.285 90.688C275.523 91.3618 274.534 91.6987 273.318 91.6987C272.103 91.6987 271.114 91.3618 270.352 90.688C269.59 90.0142 269.209 89.1499 269.209 88.0952ZM288.919 99.3013V118H281.514V94.2256H288.458L288.919 99.3013ZM288.04 105.3L286.304 105.344C286.304 103.527 286.524 101.909 286.963 100.488C287.403 99.0522 288.025 97.8364 288.831 96.8403C289.637 95.8442 290.596 95.0898 291.709 94.5771C292.837 94.0498 294.09 93.7861 295.467 93.7861C296.565 93.7861 297.569 93.9473 298.477 94.2695C299.4 94.5918 300.191 95.1118 300.85 95.8296C301.524 96.5474 302.037 97.4995 302.388 98.686C302.754 99.8579 302.938 101.308 302.938 103.037V118H295.489V103.015C295.489 102.062 295.357 101.337 295.093 100.839C294.83 100.327 294.449 99.9751 293.951 99.7847C293.453 99.5942 292.845 99.499 292.127 99.499C291.365 99.499 290.721 99.6455 290.193 99.9385C289.666 100.231 289.241 100.642 288.919 101.169C288.611 101.682 288.384 102.29 288.238 102.993C288.106 103.696 288.04 104.465 288.04 105.3ZM321.988 94.2256H328.711V117.077C328.711 119.274 328.206 121.135 327.195 122.658C326.185 124.196 324.771 125.361 322.955 126.152C321.153 126.958 319.043 127.36 316.626 127.36C315.557 127.36 314.466 127.221 313.353 126.943C312.239 126.679 311.199 126.284 310.232 125.756C309.266 125.229 308.453 124.577 307.793 123.801L310.892 119.45C311.492 120.124 312.247 120.695 313.155 121.164C314.063 121.647 315.132 121.889 316.363 121.889C317.432 121.889 318.326 121.699 319.043 121.318C319.776 120.937 320.333 120.38 320.713 119.648C321.094 118.93 321.285 118.059 321.285 117.033V99.8506L321.988 94.2256ZM306.189 106.398V105.937C306.189 104.135 306.409 102.495 306.849 101.015C307.303 99.521 307.947 98.2393 308.782 97.1699C309.632 96.0859 310.657 95.251 311.858 94.665C313.06 94.0791 314.415 93.7861 315.923 93.7861C317.549 93.7861 318.882 94.1011 319.922 94.731C320.977 95.3462 321.819 96.2104 322.449 97.3237C323.094 98.437 323.592 99.7407 323.943 101.235C324.31 102.714 324.617 104.311 324.866 106.025V106.574C324.617 108.186 324.273 109.709 323.833 111.145C323.409 112.565 322.852 113.825 322.164 114.924C321.475 116.022 320.611 116.887 319.571 117.517C318.545 118.132 317.315 118.439 315.879 118.439C314.385 118.439 313.038 118.139 311.836 117.539C310.65 116.938 309.632 116.096 308.782 115.012C307.947 113.928 307.303 112.653 306.849 111.188C306.409 109.724 306.189 108.127 306.189 106.398ZM313.594 105.937V106.398C313.594 107.292 313.675 108.12 313.836 108.881C314.012 109.643 314.275 110.317 314.627 110.903C314.979 111.474 315.411 111.921 315.923 112.243C316.451 112.565 317.066 112.727 317.769 112.727C318.838 112.727 319.703 112.5 320.362 112.045C321.021 111.591 321.497 110.947 321.79 110.112C322.083 109.277 322.208 108.295 322.164 107.167V105.432C322.193 104.465 322.127 103.615 321.966 102.883C321.805 102.136 321.548 101.513 321.197 101.015C320.86 100.517 320.406 100.144 319.834 99.8945C319.278 99.6309 318.604 99.499 317.813 99.499C317.125 99.499 316.517 99.6602 315.989 99.9824C315.462 100.305 315.022 100.759 314.671 101.345C314.319 101.916 314.048 102.597 313.858 103.388C313.682 104.165 313.594 105.014 313.594 105.937Z" fill="#424241"/>
<path d="M1363 15C1363 6.71573 1356.28 0 1348 0H1134V167H1348C1356.28 167 1363 160.284 1363 152V15Z" fill="#7E0F6D"/>
<path fill-rule="evenodd" clip-rule="evenodd" d="M1203 49C1203 47.8954 1203.9 47 1205 47H1292.5C1293.6 47 1294.5 47.8954 1294.5 49V118.996C1294.5 120.101 1293.6 120.996 1292.5 120.996H1205C1203.9 120.996 1203 120.101 1203 118.996V49ZM1207 51V55.4945H1290.5V51H1207ZM1290.5 59.4945H1235.44V116.996H1290.5V59.4945ZM1231.44 116.996V59.4945H1207V116.996H1231.44Z" fill="white"/>
<path fill-rule="evenodd" clip-rule="evenodd" d="M1209.97 64.8004C1209.97 63.6958 1210.87 62.8004 1211.97 62.8004H1225.97C1227.08 62.8004 1227.97 63.6958 1227.97 64.8004V84.1956C1227.97 85.3001 1227.08 86.1956 1225.97 86.1956H1211.97C1210.87 86.1956 1209.97 85.3001 1209.97 84.1956V64.8004ZM1213.97 66.8004V82.1956H1223.97V66.8004H1213.97ZM1239.58 65.6964C1239.58 64.5918 1240.47 63.6964 1241.58 63.6964H1284.5C1285.61 63.6964 1286.5 64.5918 1286.5 65.6964V111.905C1286.5 113.01 1285.61 113.905 1284.5 113.905H1241.58C1240.47 113.905 1239.58 113.01 1239.58 111.905V65.6964ZM1243.58 67.6964V109.905H1282.5V67.6964H1243.58ZM1209.81 95.9363C1209.81 94.8317 1210.71 93.9363 1211.81 93.9363H1220.73C1221.84 93.9363 1222.73 94.8317 1222.73 95.9363C1222.73 97.0409 1221.84 97.9363 1220.73 97.9363H1211.81C1210.71 97.9363 1209.81 97.0409 1209.81 95.9363ZM1209.81 102.936C1209.81 101.832 1210.71 100.936 1211.81 100.936H1226.35C1227.46 100.936 1228.35 101.832 1228.35 102.936C1228.35 104.041 1227.46 104.936 1226.35 104.936H1211.81C1210.71 104.936 1209.81 104.041 1209.81 102.936ZM1209.81 109.936C1209.81 108.832 1210.71 107.936 1211.81 107.936H1220.73C1221.84 107.936 1222.73 108.832 1222.73 109.936C1222.73 111.041 1221.84 111.936 1220.73 111.936H1211.81C1210.71 111.936 1209.81 111.041 1209.81 109.936Z" fill="white"/>
</svg>
