<svg width="1363" height="167" viewBox="0 0 1363 167" fill="none" xmlns="http://www.w3.org/2000/svg">
<rect width="1363" height="167" rx="15" fill="#F0F0F0"/>
<path d="M0 15C0 6.71573 6.71573 0 15 0H37V167H15C6.71573 167 0 160.284 0 152V15Z" fill="#424241"/>
<path d="M100.906 50.9219L93.3945 48.2383V45.0859L103.602 49.375V51.6367L100.906 50.9219ZM93.3945 53.1719L100.918 50.4297L103.602 49.7852V52.0352L93.3945 56.3242V53.1719ZM115.414 40.9375V58H111.898V40.9375H115.414ZM122.211 48.2266V50.9688H114.453V48.2266H122.211ZM123.031 40.9375V43.6914H114.453V40.9375H123.031ZM124.062 51.7891V51.543C124.062 50.6133 124.195 49.7578 124.461 48.9766C124.727 48.1875 125.113 47.5039 125.621 46.9258C126.129 46.3477 126.754 45.8984 127.496 45.5781C128.238 45.25 129.09 45.0859 130.051 45.0859C131.012 45.0859 131.867 45.25 132.617 45.5781C133.367 45.8984 133.996 46.3477 134.504 46.9258C135.02 47.5039 135.41 48.1875 135.676 48.9766C135.941 49.7578 136.074 50.6133 136.074 51.543V51.7891C136.074 52.7109 135.941 53.5664 135.676 54.3555C135.41 55.1367 135.02 55.8203 134.504 56.4062C133.996 56.9844 133.371 57.4336 132.629 57.7539C131.887 58.0742 131.035 58.2344 130.074 58.2344C129.113 58.2344 128.258 58.0742 127.508 57.7539C126.766 57.4336 126.137 56.9844 125.621 56.4062C125.113 55.8203 124.727 55.1367 124.461 54.3555C124.195 53.5664 124.062 52.7109 124.062 51.7891ZM127.438 51.543V51.7891C127.438 52.3203 127.484 52.8164 127.578 53.2773C127.672 53.7383 127.82 54.1445 128.023 54.4961C128.234 54.8398 128.508 55.1094 128.844 55.3047C129.18 55.5 129.59 55.5977 130.074 55.5977C130.543 55.5977 130.945 55.5 131.281 55.3047C131.617 55.1094 131.887 54.8398 132.09 54.4961C132.293 54.1445 132.441 53.7383 132.535 53.2773C132.637 52.8164 132.688 52.3203 132.688 51.7891V51.543C132.688 51.0273 132.637 50.543 132.535 50.0898C132.441 49.6289 132.289 49.2227 132.078 48.8711C131.875 48.5117 131.605 48.2305 131.27 48.0273C130.934 47.8242 130.527 47.7227 130.051 47.7227C129.574 47.7227 129.168 47.8242 128.832 48.0273C128.504 48.2305 128.234 48.5117 128.023 48.8711C127.82 49.2227 127.672 49.6289 127.578 50.0898C127.484 50.543 127.438 51.0273 127.438 51.543ZM137.609 51.7891V51.543C137.609 50.6133 137.742 49.7578 138.008 48.9766C138.273 48.1875 138.66 47.5039 139.168 46.9258C139.676 46.3477 140.301 45.8984 141.043 45.5781C141.785 45.25 142.637 45.0859 143.598 45.0859C144.559 45.0859 145.414 45.25 146.164 45.5781C146.914 45.8984 147.543 46.3477 148.051 46.9258C148.566 47.5039 148.957 48.1875 149.223 48.9766C149.488 49.7578 149.621 50.6133 149.621 51.543V51.7891C149.621 52.7109 149.488 53.5664 149.223 54.3555C148.957 55.1367 148.566 55.8203 148.051 56.4062C147.543 56.9844 146.918 57.4336 146.176 57.7539C145.434 58.0742 144.582 58.2344 143.621 58.2344C142.66 58.2344 141.805 58.0742 141.055 57.7539C140.312 57.4336 139.684 56.9844 139.168 56.4062C138.66 55.8203 138.273 55.1367 138.008 54.3555C137.742 53.5664 137.609 52.7109 137.609 51.7891ZM140.984 51.543V51.7891C140.984 52.3203 141.031 52.8164 141.125 53.2773C141.219 53.7383 141.367 54.1445 141.57 54.4961C141.781 54.8398 142.055 55.1094 142.391 55.3047C142.727 55.5 143.137 55.5977 143.621 55.5977C144.09 55.5977 144.492 55.5 144.828 55.3047C145.164 55.1094 145.434 54.8398 145.637 54.4961C145.84 54.1445 145.988 53.7383 146.082 53.2773C146.184 52.8164 146.234 52.3203 146.234 51.7891V51.543C146.234 51.0273 146.184 50.543 146.082 50.0898C145.988 49.6289 145.836 49.2227 145.625 48.8711C145.422 48.5117 145.152 48.2305 144.816 48.0273C144.48 47.8242 144.074 47.7227 143.598 47.7227C143.121 47.7227 142.715 47.8242 142.379 48.0273C142.051 48.2305 141.781 48.5117 141.57 48.8711C141.367 49.2227 141.219 49.6289 141.125 50.0898C141.031 50.543 140.984 51.0273 140.984 51.543ZM159.184 55.2344V40H162.582V58H159.523L159.184 55.2344ZM151.168 51.8125V51.5664C151.168 50.5977 151.277 49.7188 151.496 48.9297C151.715 48.1328 152.035 47.4492 152.457 46.8789C152.879 46.3086 153.398 45.8672 154.016 45.5547C154.633 45.2422 155.336 45.0859 156.125 45.0859C156.867 45.0859 157.516 45.2422 158.07 45.5547C158.633 45.8672 159.109 46.3125 159.5 46.8906C159.898 47.4609 160.219 48.1367 160.461 48.918C160.703 49.6914 160.879 50.5391 160.988 51.4609V52C160.879 52.8828 160.703 53.7031 160.461 54.4609C160.219 55.2188 159.898 55.8828 159.5 56.4531C159.109 57.0156 158.633 57.4531 158.07 57.7656C157.508 58.0781 156.852 58.2344 156.102 58.2344C155.312 58.2344 154.609 58.0742 153.992 57.7539C153.383 57.4336 152.867 56.9844 152.445 56.4062C152.031 55.8281 151.715 55.1484 151.496 54.3672C151.277 53.5859 151.168 52.7344 151.168 51.8125ZM154.543 51.5664V51.8125C154.543 52.3359 154.582 52.8242 154.66 53.2773C154.746 53.7305 154.883 54.1328 155.07 54.4844C155.266 54.8281 155.516 55.0977 155.82 55.293C156.133 55.4805 156.512 55.5742 156.957 55.5742C157.535 55.5742 158.012 55.4453 158.387 55.1875C158.762 54.9219 159.047 54.5586 159.242 54.0977C159.445 53.6367 159.562 53.1055 159.594 52.5039V50.9688C159.57 50.4766 159.5 50.0352 159.383 49.6445C159.273 49.2461 159.109 48.9062 158.891 48.625C158.68 48.3438 158.414 48.125 158.094 47.9688C157.781 47.8125 157.41 47.7344 156.98 47.7344C156.543 47.7344 156.168 47.8359 155.855 48.0391C155.543 48.2344 155.289 48.5039 155.094 48.8477C154.906 49.1914 154.766 49.5977 154.672 50.0664C154.586 50.5273 154.543 51.0273 154.543 51.5664ZM165.43 40.9375H171.793C173.098 40.9375 174.219 41.1328 175.156 41.5234C176.102 41.9141 176.828 42.4922 177.336 43.2578C177.844 44.0234 178.098 44.9648 178.098 46.082C178.098 46.9961 177.941 47.7812 177.629 48.4375C177.324 49.0859 176.891 49.6289 176.328 50.0664C175.773 50.4961 175.121 50.8398 174.371 51.0977L173.258 51.6836H167.727L167.703 48.9414H171.816C172.434 48.9414 172.945 48.832 173.352 48.6133C173.758 48.3945 174.062 48.0898 174.266 47.6992C174.477 47.3086 174.582 46.8555 174.582 46.3398C174.582 45.793 174.48 45.3203 174.277 44.9219C174.074 44.5234 173.766 44.2188 173.352 44.0078C172.938 43.7969 172.418 43.6914 171.793 43.6914H168.945V58H165.43V40.9375ZM174.969 58L171.078 50.3945L174.793 50.3711L178.73 57.8359V58H174.969ZM186.43 58.2344C185.445 58.2344 184.562 58.0781 183.781 57.7656C183 57.4453 182.336 57.0039 181.789 56.4414C181.25 55.8789 180.836 55.2266 180.547 54.4844C180.258 53.7344 180.113 52.9375 180.113 52.0938V51.625C180.113 50.6641 180.25 49.7852 180.523 48.9883C180.797 48.1914 181.188 47.5 181.695 46.9141C182.211 46.3281 182.836 45.8789 183.57 45.5664C184.305 45.2461 185.133 45.0859 186.055 45.0859C186.953 45.0859 187.75 45.2344 188.445 45.5312C189.141 45.8281 189.723 46.25 190.191 46.7969C190.668 47.3438 191.027 48 191.27 48.7656C191.512 49.5234 191.633 50.3672 191.633 51.2969V52.7031H181.555V50.4531H188.316V50.1953C188.316 49.7266 188.23 49.3086 188.059 48.9414C187.895 48.5664 187.645 48.2695 187.309 48.0508C186.973 47.832 186.543 47.7227 186.02 47.7227C185.574 47.7227 185.191 47.8203 184.871 48.0156C184.551 48.2109 184.289 48.4844 184.086 48.8359C183.891 49.1875 183.742 49.6016 183.641 50.0781C183.547 50.5469 183.5 51.0625 183.5 51.625V52.0938C183.5 52.6016 183.57 53.0703 183.711 53.5C183.859 53.9297 184.066 54.3008 184.332 54.6133C184.605 54.9258 184.934 55.168 185.316 55.3398C185.707 55.5117 186.148 55.5977 186.641 55.5977C187.25 55.5977 187.816 55.4805 188.34 55.2461C188.871 55.0039 189.328 54.6406 189.711 54.1562L191.352 55.9375C191.086 56.3203 190.723 56.6875 190.262 57.0391C189.809 57.3906 189.262 57.6797 188.621 57.9062C187.98 58.125 187.25 58.2344 186.43 58.2344ZM198.793 55.5977C199.207 55.5977 199.574 55.5195 199.895 55.3633C200.215 55.1992 200.465 54.9727 200.645 54.6836C200.832 54.3867 200.93 54.0391 200.938 53.6406H204.113C204.105 54.5312 203.867 55.3242 203.398 56.0195C202.93 56.707 202.301 57.25 201.512 57.6484C200.723 58.0391 199.84 58.2344 198.863 58.2344C197.879 58.2344 197.02 58.0703 196.285 57.7422C195.559 57.4141 194.953 56.9609 194.469 56.3828C193.984 55.7969 193.621 55.1172 193.379 54.3438C193.137 53.5625 193.016 52.7266 193.016 51.8359V51.4961C193.016 50.5977 193.137 49.7617 193.379 48.9883C193.621 48.207 193.984 47.5273 194.469 46.9492C194.953 46.3633 195.559 45.9062 196.285 45.5781C197.012 45.25 197.863 45.0859 198.84 45.0859C199.879 45.0859 200.789 45.2852 201.57 45.6836C202.359 46.082 202.977 46.6523 203.422 47.3945C203.875 48.1289 204.105 49 204.113 50.0078H200.938C200.93 49.5859 200.84 49.2031 200.668 48.8594C200.504 48.5156 200.262 48.2422 199.941 48.0391C199.629 47.8281 199.242 47.7227 198.781 47.7227C198.289 47.7227 197.887 47.8281 197.574 48.0391C197.262 48.2422 197.02 48.5234 196.848 48.8828C196.676 49.2344 196.555 49.6367 196.484 50.0898C196.422 50.5352 196.391 51.0039 196.391 51.4961V51.8359C196.391 52.3281 196.422 52.8008 196.484 53.2539C196.547 53.707 196.664 54.1094 196.836 54.4609C197.016 54.8125 197.262 55.0898 197.574 55.293C197.887 55.4961 198.293 55.5977 198.793 55.5977ZM209.633 45.3203V58H206.246V45.3203H209.633ZM206.035 42.0156C206.035 41.5234 206.207 41.1172 206.551 40.7969C206.895 40.4766 207.355 40.3164 207.934 40.3164C208.504 40.3164 208.961 40.4766 209.305 40.7969C209.656 41.1172 209.832 41.5234 209.832 42.0156C209.832 42.5078 209.656 42.9141 209.305 43.2344C208.961 43.5547 208.504 43.7148 207.934 43.7148C207.355 43.7148 206.895 43.5547 206.551 43.2344C206.207 42.9141 206.035 42.5078 206.035 42.0156ZM215.797 47.7578V62.875H212.422V45.3203H215.551L215.797 47.7578ZM223.824 51.5195V51.7656C223.824 52.6875 223.715 53.543 223.496 54.332C223.285 55.1211 222.973 55.8086 222.559 56.3945C222.145 56.9727 221.629 57.4258 221.012 57.7539C220.402 58.0742 219.699 58.2344 218.902 58.2344C218.129 58.2344 217.457 58.0781 216.887 57.7656C216.316 57.4531 215.836 57.0156 215.445 56.4531C215.062 55.8828 214.754 55.2227 214.52 54.4727C214.285 53.7227 214.105 52.918 213.98 52.0586V51.4141C214.105 50.4922 214.285 49.6484 214.52 48.8828C214.754 48.1094 215.062 47.4414 215.445 46.8789C215.836 46.3086 216.312 45.8672 216.875 45.5547C217.445 45.2422 218.113 45.0859 218.879 45.0859C219.684 45.0859 220.391 45.2383 221 45.543C221.617 45.8477 222.133 46.2852 222.547 46.8555C222.969 47.4258 223.285 48.1055 223.496 48.8945C223.715 49.6836 223.824 50.5586 223.824 51.5195ZM220.438 51.7656V51.5195C220.438 50.9805 220.391 50.4844 220.297 50.0312C220.211 49.5703 220.07 49.168 219.875 48.8242C219.688 48.4805 219.438 48.2148 219.125 48.0273C218.82 47.832 218.449 47.7344 218.012 47.7344C217.551 47.7344 217.156 47.8086 216.828 47.957C216.508 48.1055 216.246 48.3203 216.043 48.6016C215.84 48.8828 215.688 49.2188 215.586 49.6094C215.484 50 215.422 50.4414 215.398 50.9336V52.5625C215.438 53.1406 215.547 53.6602 215.727 54.1211C215.906 54.5742 216.184 54.9336 216.559 55.1992C216.934 55.4648 217.426 55.5977 218.035 55.5977C218.48 55.5977 218.855 55.5 219.16 55.3047C219.465 55.1016 219.711 54.8242 219.898 54.4727C220.094 54.1211 220.23 53.7148 220.309 53.2539C220.395 52.793 220.438 52.2969 220.438 51.7656ZM231.758 58.2344C230.773 58.2344 229.891 58.0781 229.109 57.7656C228.328 57.4453 227.664 57.0039 227.117 56.4414C226.578 55.8789 226.164 55.2266 225.875 54.4844C225.586 53.7344 225.441 52.9375 225.441 52.0938V51.625C225.441 50.6641 225.578 49.7852 225.852 48.9883C226.125 48.1914 226.516 47.5 227.023 46.9141C227.539 46.3281 228.164 45.8789 228.898 45.5664C229.633 45.2461 230.461 45.0859 231.383 45.0859C232.281 45.0859 233.078 45.2344 233.773 45.5312C234.469 45.8281 235.051 46.25 235.52 46.7969C235.996 47.3438 236.355 48 236.598 48.7656C236.84 49.5234 236.961 50.3672 236.961 51.2969V52.7031H226.883V50.4531H233.645V50.1953C233.645 49.7266 233.559 49.3086 233.387 48.9414C233.223 48.5664 232.973 48.2695 232.637 48.0508C232.301 47.832 231.871 47.7227 231.348 47.7227C230.902 47.7227 230.52 47.8203 230.199 48.0156C229.879 48.2109 229.617 48.4844 229.414 48.8359C229.219 49.1875 229.07 49.6016 228.969 50.0781C228.875 50.5469 228.828 51.0625 228.828 51.625V52.0938C228.828 52.6016 228.898 53.0703 229.039 53.5C229.188 53.9297 229.395 54.3008 229.66 54.6133C229.934 54.9258 230.262 55.168 230.645 55.3398C231.035 55.5117 231.477 55.5977 231.969 55.5977C232.578 55.5977 233.145 55.4805 233.668 55.2461C234.199 55.0039 234.656 54.6406 235.039 54.1562L236.68 55.9375C236.414 56.3203 236.051 56.6875 235.59 57.0391C235.137 57.3906 234.59 57.6797 233.949 57.9062C233.309 58.125 232.578 58.2344 231.758 58.2344Z" fill="#888888"/>
<path d="M115.994 98.708V104.641H99.5806V98.708H115.994ZM102.151 86.0078V118H94.439V86.0078H102.151ZM121.18 86.0078V118H113.489V86.0078H121.18ZM124.805 106.354V105.893C124.805 104.15 125.054 102.546 125.552 101.081C126.05 99.6016 126.783 98.3198 127.75 97.2358C128.716 96.1519 129.91 95.3096 131.331 94.709C132.752 94.0938 134.393 93.7861 136.253 93.7861C138.128 93.7861 139.776 94.0938 141.197 94.709C142.632 95.3096 143.833 96.1519 144.8 97.2358C145.767 98.3198 146.5 99.6016 146.998 101.081C147.496 102.546 147.745 104.15 147.745 105.893V106.354C147.745 108.083 147.496 109.687 146.998 111.167C146.5 112.631 145.767 113.913 144.8 115.012C143.833 116.096 142.64 116.938 141.219 117.539C139.798 118.139 138.157 118.439 136.297 118.439C134.437 118.439 132.789 118.139 131.353 117.539C129.917 116.938 128.716 116.096 127.75 115.012C126.783 113.913 126.05 112.631 125.552 111.167C125.054 109.687 124.805 108.083 124.805 106.354ZM132.21 105.893V106.354C132.21 107.248 132.276 108.083 132.408 108.859C132.54 109.636 132.759 110.317 133.067 110.903C133.375 111.474 133.792 111.921 134.319 112.243C134.847 112.565 135.506 112.727 136.297 112.727C137.073 112.727 137.718 112.565 138.23 112.243C138.758 111.921 139.175 111.474 139.483 110.903C139.791 110.317 140.01 109.636 140.142 108.859C140.274 108.083 140.34 107.248 140.34 106.354V105.893C140.34 105.029 140.274 104.216 140.142 103.454C140.01 102.678 139.791 101.997 139.483 101.411C139.175 100.81 138.758 100.341 138.23 100.004C137.703 99.6675 137.044 99.499 136.253 99.499C135.477 99.499 134.825 99.6675 134.297 100.004C133.785 100.341 133.375 100.81 133.067 101.411C132.759 101.997 132.54 102.678 132.408 103.454C132.276 104.216 132.21 105.029 132.21 105.893ZM158.27 110.925L162.664 94.2256H167.3L165.652 102.597L161.302 118H157.588L158.27 110.925ZM156.534 94.2256L159.258 110.793L159.566 118H155.062L149.437 94.2256H156.534ZM171.211 110.441L173.958 94.2256H181.055L175.474 118H170.97L171.211 110.441ZM167.828 94.2256L172.266 110.881L172.947 118H169.19L164.927 102.641L163.345 94.2256H167.828ZM209.466 86.0078V118H201.753V86.0078H209.466ZM219.09 86.0078V91.9624H192.349V86.0078H219.09ZM216.475 106.354V105.893C216.475 104.15 216.724 102.546 217.222 101.081C217.72 99.6016 218.453 98.3198 219.419 97.2358C220.386 96.1519 221.58 95.3096 223.001 94.709C224.422 94.0938 226.062 93.7861 227.923 93.7861C229.798 93.7861 231.446 94.0938 232.867 94.709C234.302 95.3096 235.503 96.1519 236.47 97.2358C237.437 98.3198 238.169 99.6016 238.667 101.081C239.166 102.546 239.415 104.15 239.415 105.893V106.354C239.415 108.083 239.166 109.687 238.667 111.167C238.169 112.631 237.437 113.913 236.47 115.012C235.503 116.096 234.31 116.938 232.889 117.539C231.468 118.139 229.827 118.439 227.967 118.439C226.106 118.439 224.458 118.139 223.023 117.539C221.587 116.938 220.386 116.096 219.419 115.012C218.453 113.913 217.72 112.631 217.222 111.167C216.724 109.687 216.475 108.083 216.475 106.354ZM223.88 105.893V106.354C223.88 107.248 223.946 108.083 224.078 108.859C224.209 109.636 224.429 110.317 224.737 110.903C225.044 111.474 225.462 111.921 225.989 112.243C226.517 112.565 227.176 112.727 227.967 112.727C228.743 112.727 229.388 112.565 229.9 112.243C230.428 111.921 230.845 111.474 231.153 110.903C231.46 110.317 231.68 109.636 231.812 108.859C231.944 108.083 232.01 107.248 232.01 106.354V105.893C232.01 105.029 231.944 104.216 231.812 103.454C231.68 102.678 231.46 101.997 231.153 101.411C230.845 100.81 230.428 100.341 229.9 100.004C229.373 99.6675 228.714 99.499 227.923 99.499C227.146 99.499 226.495 99.6675 225.967 100.004C225.455 100.341 225.044 100.81 224.737 101.411C224.429 101.997 224.209 102.678 224.078 103.454C223.946 104.216 223.88 105.029 223.88 105.893ZM254.268 86.0078H266.858C269.319 86.0078 271.458 86.374 273.274 87.1064C275.091 87.8389 276.49 88.9229 277.471 90.3584C278.467 91.7939 278.965 93.5664 278.965 95.6758C278.965 97.5068 278.68 99.0376 278.108 100.268C277.537 101.499 276.739 102.517 275.713 103.322C274.703 104.113 273.523 104.765 272.176 105.278L269.649 106.706H259.08L259.036 100.751H266.858C267.84 100.751 268.653 100.576 269.297 100.224C269.942 99.8726 270.425 99.3745 270.748 98.73C271.084 98.0708 271.253 97.2871 271.253 96.3789C271.253 95.4561 271.084 94.665 270.748 94.0059C270.411 93.3467 269.913 92.8413 269.253 92.4897C268.609 92.1382 267.811 91.9624 266.858 91.9624H261.98V118H254.268V86.0078ZM271.78 118L264.705 103.85L272.879 103.806L280.042 117.67V118H271.78ZM297.159 112.221V94.2256H304.585V118H297.642L297.159 112.221ZM297.862 107.387L299.795 107.343C299.795 108.94 299.605 110.419 299.224 111.782C298.843 113.129 298.279 114.301 297.532 115.297C296.8 116.293 295.892 117.07 294.808 117.626C293.738 118.168 292.5 118.439 291.094 118.439C289.922 118.439 288.846 118.278 287.864 117.956C286.897 117.619 286.062 117.099 285.359 116.396C284.656 115.678 284.107 114.763 283.711 113.649C283.331 112.521 283.14 111.174 283.14 109.606V94.2256H290.545V109.65C290.545 110.178 290.611 110.632 290.743 111.013C290.875 111.394 291.065 111.716 291.314 111.979C291.563 112.229 291.871 112.419 292.237 112.551C292.618 112.668 293.05 112.727 293.533 112.727C294.646 112.727 295.518 112.492 296.148 112.023C296.778 111.555 297.217 110.917 297.466 110.112C297.73 109.306 297.862 108.398 297.862 107.387ZM315.945 99.3013V118H308.541V94.2256H315.484L315.945 99.3013ZM315.066 105.3L313.331 105.344C313.331 103.527 313.55 101.909 313.99 100.488C314.429 99.0522 315.052 97.8364 315.857 96.8403C316.663 95.8442 317.623 95.0898 318.736 94.5771C319.864 94.0498 321.116 93.7861 322.493 93.7861C323.592 93.7861 324.595 93.9473 325.503 94.2695C326.426 94.5918 327.217 95.1118 327.876 95.8296C328.55 96.5474 329.063 97.4995 329.415 98.686C329.781 99.8579 329.964 101.308 329.964 103.037V118H322.515V103.015C322.515 102.062 322.383 101.337 322.12 100.839C321.856 100.327 321.475 99.9751 320.977 99.7847C320.479 99.5942 319.871 99.499 319.153 99.499C318.392 99.499 317.747 99.6455 317.22 99.9385C316.692 100.231 316.268 100.642 315.945 101.169C315.638 101.682 315.411 102.29 315.264 102.993C315.132 103.696 315.066 104.465 315.066 105.3ZM345.85 107.871H339.544C339.544 106.582 339.632 105.446 339.808 104.465C339.998 103.469 340.32 102.575 340.774 101.784C341.229 100.993 341.844 100.261 342.62 99.5869C343.309 99.0156 343.902 98.4663 344.4 97.939C344.898 97.4116 345.279 96.877 345.542 96.335C345.806 95.793 345.938 95.2144 345.938 94.5991C345.938 93.8374 345.828 93.2148 345.608 92.7314C345.403 92.248 345.088 91.8892 344.664 91.6548C344.253 91.4058 343.733 91.2812 343.104 91.2812C342.591 91.2812 342.107 91.4058 341.653 91.6548C341.214 91.9038 340.855 92.292 340.577 92.8193C340.298 93.332 340.145 94.0132 340.115 94.8628H332.667C332.71 92.6802 333.194 90.9077 334.117 89.5454C335.054 88.1685 336.299 87.165 337.852 86.5352C339.419 85.8906 341.17 85.5684 343.104 85.5684C345.242 85.5684 347.081 85.8979 348.619 86.5571C350.157 87.2163 351.336 88.1978 352.156 89.5015C352.977 90.7905 353.387 92.3799 353.387 94.2695C353.387 95.5293 353.145 96.6279 352.662 97.5654C352.193 98.4883 351.556 99.3525 350.75 100.158C349.959 100.949 349.073 101.799 348.091 102.707C347.242 103.454 346.663 104.216 346.355 104.992C346.048 105.754 345.879 106.713 345.85 107.871ZM338.643 114.55C338.643 113.496 339.024 112.617 339.786 111.914C340.547 111.196 341.536 110.837 342.752 110.837C343.968 110.837 344.957 111.196 345.718 111.914C346.48 112.617 346.861 113.496 346.861 114.55C346.861 115.605 346.48 116.491 345.718 117.209C344.957 117.912 343.968 118.264 342.752 118.264C341.536 118.264 340.547 117.912 339.786 117.209C339.024 116.491 338.643 115.605 338.643 114.55Z" fill="#424241"/>
<path d="M1363 15C1363 6.71573 1356.28 0 1348 0H1134V167H1348C1356.28 167 1363 160.284 1363 152V15Z" fill="#7E0F6D"/>
<path d="M1260.77 81.3079C1263.96 81.3079 1267.09 82.2553 1269.74 84.0303C1272.4 85.8053 1274.47 88.3282 1275.69 91.2799C1276.92 94.2316 1277.24 97.4796 1276.61 100.613C1275.99 103.747 1274.45 106.625 1272.19 108.884C1269.93 111.143 1267.05 112.682 1263.92 113.305C1260.79 113.928 1257.54 113.608 1254.59 112.386C1251.64 111.163 1249.11 109.093 1247.34 106.436C1245.56 103.78 1244.62 100.657 1244.62 97.4617C1244.62 93.1774 1246.32 89.0686 1249.35 86.0392C1252.38 83.0098 1256.48 81.3079 1260.77 81.3079V81.3079ZM1260.77 75.9233C1256.51 75.9233 1252.35 77.1865 1248.8 79.5532C1245.26 81.9198 1242.5 85.2837 1240.87 89.2193C1239.24 93.1549 1238.81 97.4856 1239.64 101.664C1240.48 105.842 1242.53 109.679 1245.54 112.692C1248.55 115.704 1252.39 117.755 1256.57 118.586C1260.75 119.417 1265.08 118.991 1269.01 117.361C1272.95 115.73 1276.31 112.97 1278.68 109.428C1281.04 105.886 1282.31 101.722 1282.31 97.4617C1282.31 91.7493 1280.04 86.271 1276 82.2317C1271.96 78.1925 1266.48 75.9233 1260.77 75.9233Z" fill="white"/>
<path d="M1274.23 49H1220.38C1218.96 49 1217.59 49.5673 1216.58 50.5771C1215.57 51.5869 1215 52.9565 1215 54.3846V108.231C1215 109.659 1215.57 111.028 1216.58 112.038C1217.59 113.048 1218.96 113.615 1220.38 113.615H1231.15V108.231H1220.38V70.5384H1279.62V54.3846C1279.62 52.9565 1279.05 51.5869 1278.04 50.5771C1277.03 49.5673 1275.66 49 1274.23 49V49ZM1220.38 65.1538V54.3846H1274.23V65.1538H1220.38Z" fill="white"/>
<path d="M1255.39 89.3849V105.539L1268.85 97.4618L1255.39 89.3849Z" fill="white"/>
</svg>
