<svg width="1363" height="167" viewBox="0 0 1363 167" fill="none" xmlns="http://www.w3.org/2000/svg">
<rect width="1363" height="167" rx="15" fill="#F0F0F0"/>
<path d="M0 15C0 6.71573 6.71573 0 15 0H37V167H15C6.71573 167 0 160.284 0 152V15Z" fill="#424241"/>
<path d="M100.906 50.9219L93.3945 48.2383V45.0859L103.602 49.375V51.6367L100.906 50.9219ZM93.3945 53.1719L100.918 50.4297L103.602 49.7852V52.0352L93.3945 56.3242V53.1719ZM115.414 40.9375V58H111.898V40.9375H115.414ZM122.211 48.2266V50.9688H114.453V48.2266H122.211ZM123.031 40.9375V43.6914H114.453V40.9375H123.031ZM124.062 51.7891V51.543C124.062 50.6133 124.195 49.7578 124.461 48.9766C124.727 48.1875 125.113 47.5039 125.621 46.9258C126.129 46.3477 126.754 45.8984 127.496 45.5781C128.238 45.25 129.09 45.0859 130.051 45.0859C131.012 45.0859 131.867 45.25 132.617 45.5781C133.367 45.8984 133.996 46.3477 134.504 46.9258C135.02 47.5039 135.41 48.1875 135.676 48.9766C135.941 49.7578 136.074 50.6133 136.074 51.543V51.7891C136.074 52.7109 135.941 53.5664 135.676 54.3555C135.41 55.1367 135.02 55.8203 134.504 56.4062C133.996 56.9844 133.371 57.4336 132.629 57.7539C131.887 58.0742 131.035 58.2344 130.074 58.2344C129.113 58.2344 128.258 58.0742 127.508 57.7539C126.766 57.4336 126.137 56.9844 125.621 56.4062C125.113 55.8203 124.727 55.1367 124.461 54.3555C124.195 53.5664 124.062 52.7109 124.062 51.7891ZM127.438 51.543V51.7891C127.438 52.3203 127.484 52.8164 127.578 53.2773C127.672 53.7383 127.82 54.1445 128.023 54.4961C128.234 54.8398 128.508 55.1094 128.844 55.3047C129.18 55.5 129.59 55.5977 130.074 55.5977C130.543 55.5977 130.945 55.5 131.281 55.3047C131.617 55.1094 131.887 54.8398 132.09 54.4961C132.293 54.1445 132.441 53.7383 132.535 53.2773C132.637 52.8164 132.688 52.3203 132.688 51.7891V51.543C132.688 51.0273 132.637 50.543 132.535 50.0898C132.441 49.6289 132.289 49.2227 132.078 48.8711C131.875 48.5117 131.605 48.2305 131.27 48.0273C130.934 47.8242 130.527 47.7227 130.051 47.7227C129.574 47.7227 129.168 47.8242 128.832 48.0273C128.504 48.2305 128.234 48.5117 128.023 48.8711C127.82 49.2227 127.672 49.6289 127.578 50.0898C127.484 50.543 127.438 51.0273 127.438 51.543ZM137.609 51.7891V51.543C137.609 50.6133 137.742 49.7578 138.008 48.9766C138.273 48.1875 138.66 47.5039 139.168 46.9258C139.676 46.3477 140.301 45.8984 141.043 45.5781C141.785 45.25 142.637 45.0859 143.598 45.0859C144.559 45.0859 145.414 45.25 146.164 45.5781C146.914 45.8984 147.543 46.3477 148.051 46.9258C148.566 47.5039 148.957 48.1875 149.223 48.9766C149.488 49.7578 149.621 50.6133 149.621 51.543V51.7891C149.621 52.7109 149.488 53.5664 149.223 54.3555C148.957 55.1367 148.566 55.8203 148.051 56.4062C147.543 56.9844 146.918 57.4336 146.176 57.7539C145.434 58.0742 144.582 58.2344 143.621 58.2344C142.66 58.2344 141.805 58.0742 141.055 57.7539C140.312 57.4336 139.684 56.9844 139.168 56.4062C138.66 55.8203 138.273 55.1367 138.008 54.3555C137.742 53.5664 137.609 52.7109 137.609 51.7891ZM140.984 51.543V51.7891C140.984 52.3203 141.031 52.8164 141.125 53.2773C141.219 53.7383 141.367 54.1445 141.57 54.4961C141.781 54.8398 142.055 55.1094 142.391 55.3047C142.727 55.5 143.137 55.5977 143.621 55.5977C144.09 55.5977 144.492 55.5 144.828 55.3047C145.164 55.1094 145.434 54.8398 145.637 54.4961C145.84 54.1445 145.988 53.7383 146.082 53.2773C146.184 52.8164 146.234 52.3203 146.234 51.7891V51.543C146.234 51.0273 146.184 50.543 146.082 50.0898C145.988 49.6289 145.836 49.2227 145.625 48.8711C145.422 48.5117 145.152 48.2305 144.816 48.0273C144.48 47.8242 144.074 47.7227 143.598 47.7227C143.121 47.7227 142.715 47.8242 142.379 48.0273C142.051 48.2305 141.781 48.5117 141.57 48.8711C141.367 49.2227 141.219 49.6289 141.125 50.0898C141.031 50.543 140.984 51.0273 140.984 51.543ZM159.184 55.2344V40H162.582V58H159.523L159.184 55.2344ZM151.168 51.8125V51.5664C151.168 50.5977 151.277 49.7188 151.496 48.9297C151.715 48.1328 152.035 47.4492 152.457 46.8789C152.879 46.3086 153.398 45.8672 154.016 45.5547C154.633 45.2422 155.336 45.0859 156.125 45.0859C156.867 45.0859 157.516 45.2422 158.07 45.5547C158.633 45.8672 159.109 46.3125 159.5 46.8906C159.898 47.4609 160.219 48.1367 160.461 48.918C160.703 49.6914 160.879 50.5391 160.988 51.4609V52C160.879 52.8828 160.703 53.7031 160.461 54.4609C160.219 55.2188 159.898 55.8828 159.5 56.4531C159.109 57.0156 158.633 57.4531 158.07 57.7656C157.508 58.0781 156.852 58.2344 156.102 58.2344C155.312 58.2344 154.609 58.0742 153.992 57.7539C153.383 57.4336 152.867 56.9844 152.445 56.4062C152.031 55.8281 151.715 55.1484 151.496 54.3672C151.277 53.5859 151.168 52.7344 151.168 51.8125ZM154.543 51.5664V51.8125C154.543 52.3359 154.582 52.8242 154.66 53.2773C154.746 53.7305 154.883 54.1328 155.07 54.4844C155.266 54.8281 155.516 55.0977 155.82 55.293C156.133 55.4805 156.512 55.5742 156.957 55.5742C157.535 55.5742 158.012 55.4453 158.387 55.1875C158.762 54.9219 159.047 54.5586 159.242 54.0977C159.445 53.6367 159.562 53.1055 159.594 52.5039V50.9688C159.57 50.4766 159.5 50.0352 159.383 49.6445C159.273 49.2461 159.109 48.9062 158.891 48.625C158.68 48.3438 158.414 48.125 158.094 47.9688C157.781 47.8125 157.41 47.7344 156.98 47.7344C156.543 47.7344 156.168 47.8359 155.855 48.0391C155.543 48.2344 155.289 48.5039 155.094 48.8477C154.906 49.1914 154.766 49.5977 154.672 50.0664C154.586 50.5273 154.543 51.0273 154.543 51.5664ZM165.43 40.9375H171.793C173.098 40.9375 174.219 41.1328 175.156 41.5234C176.102 41.9141 176.828 42.4922 177.336 43.2578C177.844 44.0234 178.098 44.9648 178.098 46.082C178.098 46.9961 177.941 47.7812 177.629 48.4375C177.324 49.0859 176.891 49.6289 176.328 50.0664C175.773 50.4961 175.121 50.8398 174.371 51.0977L173.258 51.6836H167.727L167.703 48.9414H171.816C172.434 48.9414 172.945 48.832 173.352 48.6133C173.758 48.3945 174.062 48.0898 174.266 47.6992C174.477 47.3086 174.582 46.8555 174.582 46.3398C174.582 45.793 174.48 45.3203 174.277 44.9219C174.074 44.5234 173.766 44.2188 173.352 44.0078C172.938 43.7969 172.418 43.6914 171.793 43.6914H168.945V58H165.43V40.9375ZM174.969 58L171.078 50.3945L174.793 50.3711L178.73 57.8359V58H174.969ZM186.43 58.2344C185.445 58.2344 184.562 58.0781 183.781 57.7656C183 57.4453 182.336 57.0039 181.789 56.4414C181.25 55.8789 180.836 55.2266 180.547 54.4844C180.258 53.7344 180.113 52.9375 180.113 52.0938V51.625C180.113 50.6641 180.25 49.7852 180.523 48.9883C180.797 48.1914 181.188 47.5 181.695 46.9141C182.211 46.3281 182.836 45.8789 183.57 45.5664C184.305 45.2461 185.133 45.0859 186.055 45.0859C186.953 45.0859 187.75 45.2344 188.445 45.5312C189.141 45.8281 189.723 46.25 190.191 46.7969C190.668 47.3438 191.027 48 191.27 48.7656C191.512 49.5234 191.633 50.3672 191.633 51.2969V52.7031H181.555V50.4531H188.316V50.1953C188.316 49.7266 188.23 49.3086 188.059 48.9414C187.895 48.5664 187.645 48.2695 187.309 48.0508C186.973 47.832 186.543 47.7227 186.02 47.7227C185.574 47.7227 185.191 47.8203 184.871 48.0156C184.551 48.2109 184.289 48.4844 184.086 48.8359C183.891 49.1875 183.742 49.6016 183.641 50.0781C183.547 50.5469 183.5 51.0625 183.5 51.625V52.0938C183.5 52.6016 183.57 53.0703 183.711 53.5C183.859 53.9297 184.066 54.3008 184.332 54.6133C184.605 54.9258 184.934 55.168 185.316 55.3398C185.707 55.5117 186.148 55.5977 186.641 55.5977C187.25 55.5977 187.816 55.4805 188.34 55.2461C188.871 55.0039 189.328 54.6406 189.711 54.1562L191.352 55.9375C191.086 56.3203 190.723 56.6875 190.262 57.0391C189.809 57.3906 189.262 57.6797 188.621 57.9062C187.98 58.125 187.25 58.2344 186.43 58.2344ZM198.793 55.5977C199.207 55.5977 199.574 55.5195 199.895 55.3633C200.215 55.1992 200.465 54.9727 200.645 54.6836C200.832 54.3867 200.93 54.0391 200.938 53.6406H204.113C204.105 54.5312 203.867 55.3242 203.398 56.0195C202.93 56.707 202.301 57.25 201.512 57.6484C200.723 58.0391 199.84 58.2344 198.863 58.2344C197.879 58.2344 197.02 58.0703 196.285 57.7422C195.559 57.4141 194.953 56.9609 194.469 56.3828C193.984 55.7969 193.621 55.1172 193.379 54.3438C193.137 53.5625 193.016 52.7266 193.016 51.8359V51.4961C193.016 50.5977 193.137 49.7617 193.379 48.9883C193.621 48.207 193.984 47.5273 194.469 46.9492C194.953 46.3633 195.559 45.9062 196.285 45.5781C197.012 45.25 197.863 45.0859 198.84 45.0859C199.879 45.0859 200.789 45.2852 201.57 45.6836C202.359 46.082 202.977 46.6523 203.422 47.3945C203.875 48.1289 204.105 49 204.113 50.0078H200.938C200.93 49.5859 200.84 49.2031 200.668 48.8594C200.504 48.5156 200.262 48.2422 199.941 48.0391C199.629 47.8281 199.242 47.7227 198.781 47.7227C198.289 47.7227 197.887 47.8281 197.574 48.0391C197.262 48.2422 197.02 48.5234 196.848 48.8828C196.676 49.2344 196.555 49.6367 196.484 50.0898C196.422 50.5352 196.391 51.0039 196.391 51.4961V51.8359C196.391 52.3281 196.422 52.8008 196.484 53.2539C196.547 53.707 196.664 54.1094 196.836 54.4609C197.016 54.8125 197.262 55.0898 197.574 55.293C197.887 55.4961 198.293 55.5977 198.793 55.5977ZM209.633 45.3203V58H206.246V45.3203H209.633ZM206.035 42.0156C206.035 41.5234 206.207 41.1172 206.551 40.7969C206.895 40.4766 207.355 40.3164 207.934 40.3164C208.504 40.3164 208.961 40.4766 209.305 40.7969C209.656 41.1172 209.832 41.5234 209.832 42.0156C209.832 42.5078 209.656 42.9141 209.305 43.2344C208.961 43.5547 208.504 43.7148 207.934 43.7148C207.355 43.7148 206.895 43.5547 206.551 43.2344C206.207 42.9141 206.035 42.5078 206.035 42.0156ZM215.797 47.7578V62.875H212.422V45.3203H215.551L215.797 47.7578ZM223.824 51.5195V51.7656C223.824 52.6875 223.715 53.543 223.496 54.332C223.285 55.1211 222.973 55.8086 222.559 56.3945C222.145 56.9727 221.629 57.4258 221.012 57.7539C220.402 58.0742 219.699 58.2344 218.902 58.2344C218.129 58.2344 217.457 58.0781 216.887 57.7656C216.316 57.4531 215.836 57.0156 215.445 56.4531C215.062 55.8828 214.754 55.2227 214.52 54.4727C214.285 53.7227 214.105 52.918 213.98 52.0586V51.4141C214.105 50.4922 214.285 49.6484 214.52 48.8828C214.754 48.1094 215.062 47.4414 215.445 46.8789C215.836 46.3086 216.312 45.8672 216.875 45.5547C217.445 45.2422 218.113 45.0859 218.879 45.0859C219.684 45.0859 220.391 45.2383 221 45.543C221.617 45.8477 222.133 46.2852 222.547 46.8555C222.969 47.4258 223.285 48.1055 223.496 48.8945C223.715 49.6836 223.824 50.5586 223.824 51.5195ZM220.438 51.7656V51.5195C220.438 50.9805 220.391 50.4844 220.297 50.0312C220.211 49.5703 220.07 49.168 219.875 48.8242C219.688 48.4805 219.438 48.2148 219.125 48.0273C218.82 47.832 218.449 47.7344 218.012 47.7344C217.551 47.7344 217.156 47.8086 216.828 47.957C216.508 48.1055 216.246 48.3203 216.043 48.6016C215.84 48.8828 215.688 49.2188 215.586 49.6094C215.484 50 215.422 50.4414 215.398 50.9336V52.5625C215.438 53.1406 215.547 53.6602 215.727 54.1211C215.906 54.5742 216.184 54.9336 216.559 55.1992C216.934 55.4648 217.426 55.5977 218.035 55.5977C218.48 55.5977 218.855 55.5 219.16 55.3047C219.465 55.1016 219.711 54.8242 219.898 54.4727C220.094 54.1211 220.23 53.7148 220.309 53.2539C220.395 52.793 220.438 52.2969 220.438 51.7656ZM231.758 58.2344C230.773 58.2344 229.891 58.0781 229.109 57.7656C228.328 57.4453 227.664 57.0039 227.117 56.4414C226.578 55.8789 226.164 55.2266 225.875 54.4844C225.586 53.7344 225.441 52.9375 225.441 52.0938V51.625C225.441 50.6641 225.578 49.7852 225.852 48.9883C226.125 48.1914 226.516 47.5 227.023 46.9141C227.539 46.3281 228.164 45.8789 228.898 45.5664C229.633 45.2461 230.461 45.0859 231.383 45.0859C232.281 45.0859 233.078 45.2344 233.773 45.5312C234.469 45.8281 235.051 46.25 235.52 46.7969C235.996 47.3438 236.355 48 236.598 48.7656C236.84 49.5234 236.961 50.3672 236.961 51.2969V52.7031H226.883V50.4531H233.645V50.1953C233.645 49.7266 233.559 49.3086 233.387 48.9414C233.223 48.5664 232.973 48.2695 232.637 48.0508C232.301 47.832 231.871 47.7227 231.348 47.7227C230.902 47.7227 230.52 47.8203 230.199 48.0156C229.879 48.2109 229.617 48.4844 229.414 48.8359C229.219 49.1875 229.07 49.6016 228.969 50.0781C228.875 50.5469 228.828 51.0625 228.828 51.625V52.0938C228.828 52.6016 228.898 53.0703 229.039 53.5C229.188 53.9297 229.395 54.3008 229.66 54.6133C229.934 54.9258 230.262 55.168 230.645 55.3398C231.035 55.5117 231.477 55.5977 231.969 55.5977C232.578 55.5977 233.145 55.4805 233.668 55.2461C234.199 55.0039 234.656 54.6406 235.039 54.1562L236.68 55.9375C236.414 56.3203 236.051 56.6875 235.59 57.0391C235.137 57.3906 234.59 57.6797 233.949 57.9062C233.309 58.125 232.578 58.2344 231.758 58.2344Z" fill="#888888"/>
<path d="M102.635 86.0078V118H94.9443V86.0078H102.635ZM115.181 99.2573V118H107.776V94.2256H114.72L115.181 99.2573ZM114.28 105.3L112.588 105.344C112.588 103.674 112.786 102.136 113.182 100.729C113.577 99.3232 114.163 98.1001 114.939 97.0601C115.716 96.02 116.668 95.2144 117.796 94.6431C118.938 94.0718 120.257 93.7861 121.751 93.7861C122.791 93.7861 123.736 93.9473 124.585 94.2695C125.435 94.5771 126.167 95.0679 126.783 95.7417C127.398 96.4009 127.867 97.2651 128.189 98.3345C128.526 99.3892 128.694 100.656 128.694 102.136V118H121.29V103.081C121.29 102.07 121.172 101.308 120.938 100.795C120.718 100.283 120.396 99.9385 119.971 99.7627C119.546 99.5869 119.026 99.499 118.411 99.499C117.767 99.499 117.188 99.6455 116.675 99.9385C116.163 100.231 115.723 100.642 115.357 101.169C115.005 101.682 114.734 102.29 114.544 102.993C114.368 103.696 114.28 104.465 114.28 105.3ZM127.859 105.3L125.794 105.344C125.794 103.674 125.977 102.136 126.343 100.729C126.724 99.3232 127.288 98.1001 128.035 97.0601C128.797 96.02 129.742 95.2144 130.87 94.6431C131.998 94.0718 133.309 93.7861 134.803 93.7861C135.887 93.7861 136.883 93.9473 137.791 94.2695C138.699 94.5918 139.483 95.1118 140.142 95.8296C140.801 96.5474 141.314 97.4995 141.68 98.686C142.046 99.8579 142.229 101.308 142.229 103.037V118H134.803V103.037C134.803 102.055 134.686 101.315 134.451 100.817C134.231 100.305 133.909 99.9604 133.484 99.7847C133.06 99.5942 132.554 99.499 131.968 99.499C131.265 99.499 130.657 99.6455 130.145 99.9385C129.632 100.231 129.2 100.642 128.848 101.169C128.511 101.682 128.262 102.29 128.101 102.993C127.94 103.696 127.859 104.465 127.859 105.3ZM153.941 98.7959V127.141H146.536V94.2256H153.436L153.941 98.7959ZM168.531 105.827V106.289C168.531 108.017 168.333 109.621 167.938 111.101C167.542 112.58 166.956 113.869 166.18 114.968C165.403 116.066 164.437 116.923 163.279 117.539C162.137 118.139 160.811 118.439 159.302 118.439C157.881 118.439 156.658 118.125 155.633 117.495C154.607 116.865 153.75 115.993 153.062 114.88C152.374 113.767 151.817 112.492 151.392 111.057C150.967 109.621 150.63 108.105 150.381 106.508V105.915C150.63 104.201 150.967 102.612 151.392 101.147C151.817 99.6675 152.374 98.3784 153.062 97.2798C153.75 96.1812 154.6 95.3242 155.611 94.709C156.636 94.0938 157.859 93.7861 159.28 93.7861C160.789 93.7861 162.115 94.0718 163.257 94.6431C164.415 95.2144 165.381 96.0347 166.158 97.104C166.949 98.1587 167.542 99.4258 167.938 100.905C168.333 102.385 168.531 104.025 168.531 105.827ZM161.126 106.289V105.827C161.126 104.904 161.06 104.062 160.928 103.3C160.796 102.524 160.584 101.85 160.291 101.279C160.013 100.708 159.639 100.268 159.17 99.9604C158.702 99.6528 158.123 99.499 157.435 99.499C156.644 99.499 155.977 99.6235 155.435 99.8726C154.908 100.107 154.483 100.473 154.161 100.971C153.853 101.455 153.633 102.062 153.501 102.795C153.384 103.513 153.333 104.355 153.348 105.322V107.124C153.318 108.237 153.428 109.218 153.677 110.068C153.926 110.903 154.358 111.555 154.974 112.023C155.589 112.492 156.424 112.727 157.479 112.727C158.182 112.727 158.768 112.565 159.236 112.243C159.705 111.906 160.079 111.445 160.357 110.859C160.635 110.258 160.833 109.57 160.95 108.793C161.067 108.017 161.126 107.182 161.126 106.289ZM179.649 84.25V118H172.222V84.25H179.649ZM195.733 118.439C193.799 118.439 192.071 118.139 190.547 117.539C189.024 116.923 187.735 116.081 186.68 115.012C185.64 113.942 184.842 112.712 184.285 111.32C183.743 109.929 183.472 108.457 183.472 106.904V106.069C183.472 104.326 183.714 102.714 184.197 101.235C184.681 99.7407 185.398 98.437 186.351 97.3237C187.303 96.2104 188.497 95.3462 189.932 94.731C191.368 94.1011 193.038 93.7861 194.942 93.7861C196.626 93.7861 198.135 94.0571 199.468 94.5991C200.801 95.1411 201.929 95.9175 202.852 96.9282C203.79 97.939 204.5 99.1621 204.983 100.598C205.481 102.033 205.73 103.645 205.73 105.432V108.442H186.307V103.806H198.501V103.234C198.516 102.443 198.377 101.77 198.084 101.213C197.806 100.656 197.396 100.231 196.854 99.9385C196.312 99.6455 195.652 99.499 194.876 99.499C194.07 99.499 193.404 99.6748 192.876 100.026C192.364 100.378 191.961 100.861 191.668 101.477C191.39 102.077 191.192 102.773 191.075 103.564C190.958 104.355 190.899 105.19 190.899 106.069V106.904C190.899 107.783 191.016 108.581 191.25 109.299C191.5 110.017 191.851 110.632 192.305 111.145C192.774 111.643 193.331 112.031 193.975 112.309C194.634 112.587 195.381 112.727 196.216 112.727C197.227 112.727 198.223 112.536 199.205 112.155C200.186 111.774 201.028 111.145 201.731 110.266L205.093 114.265C204.61 114.953 203.921 115.62 203.028 116.264C202.149 116.909 201.094 117.436 199.864 117.846C198.633 118.242 197.256 118.439 195.733 118.439ZM216.211 99.2573V118H208.807V94.2256H215.75L216.211 99.2573ZM215.311 105.3L213.619 105.344C213.619 103.674 213.816 102.136 214.212 100.729C214.607 99.3232 215.193 98.1001 215.97 97.0601C216.746 96.02 217.698 95.2144 218.826 94.6431C219.969 94.0718 221.287 93.7861 222.781 93.7861C223.821 93.7861 224.766 93.9473 225.616 94.2695C226.465 94.5771 227.198 95.0679 227.813 95.7417C228.428 96.4009 228.897 97.2651 229.219 98.3345C229.556 99.3892 229.725 100.656 229.725 102.136V118H222.32V103.081C222.32 102.07 222.203 101.308 221.968 100.795C221.749 100.283 221.426 99.9385 221.001 99.7627C220.577 99.5869 220.057 99.499 219.441 99.499C218.797 99.499 218.218 99.6455 217.706 99.9385C217.193 100.231 216.753 100.642 216.387 101.169C216.036 101.682 215.765 102.29 215.574 102.993C215.398 103.696 215.311 104.465 215.311 105.3ZM228.89 105.3L226.824 105.344C226.824 103.674 227.007 102.136 227.374 100.729C227.754 99.3232 228.318 98.1001 229.065 97.0601C229.827 96.02 230.772 95.2144 231.9 94.6431C233.028 94.0718 234.339 93.7861 235.833 93.7861C236.917 93.7861 237.913 93.9473 238.821 94.2695C239.729 94.5918 240.513 95.1118 241.172 95.8296C241.832 96.5474 242.344 97.4995 242.71 98.686C243.077 99.8579 243.26 101.308 243.26 103.037V118H235.833V103.037C235.833 102.055 235.716 101.315 235.481 100.817C235.262 100.305 234.939 99.9604 234.515 99.7847C234.09 99.5942 233.584 99.499 232.999 99.499C232.295 99.499 231.688 99.6455 231.175 99.9385C230.662 100.231 230.23 100.642 229.878 101.169C229.542 101.682 229.292 102.29 229.131 102.993C228.97 103.696 228.89 104.465 228.89 105.3ZM259.014 118.439C257.081 118.439 255.352 118.139 253.829 117.539C252.305 116.923 251.016 116.081 249.961 115.012C248.921 113.942 248.123 112.712 247.566 111.32C247.024 109.929 246.753 108.457 246.753 106.904V106.069C246.753 104.326 246.995 102.714 247.479 101.235C247.962 99.7407 248.68 98.437 249.632 97.3237C250.584 96.2104 251.778 95.3462 253.213 94.731C254.649 94.1011 256.319 93.7861 258.223 93.7861C259.908 93.7861 261.417 94.0571 262.75 94.5991C264.083 95.1411 265.21 95.9175 266.133 96.9282C267.071 97.939 267.781 99.1621 268.265 100.598C268.763 102.033 269.012 103.645 269.012 105.432V108.442H249.588V103.806H261.783V103.234C261.797 102.443 261.658 101.77 261.365 101.213C261.087 100.656 260.677 100.231 260.135 99.9385C259.593 99.6455 258.934 99.499 258.157 99.499C257.352 99.499 256.685 99.6748 256.158 100.026C255.645 100.378 255.242 100.861 254.949 101.477C254.671 102.077 254.473 102.773 254.356 103.564C254.239 104.355 254.18 105.19 254.18 106.069V106.904C254.18 107.783 254.297 108.581 254.532 109.299C254.781 110.017 255.132 110.632 255.586 111.145C256.055 111.643 256.612 112.031 257.256 112.309C257.916 112.587 258.663 112.727 259.498 112.727C260.508 112.727 261.504 112.536 262.486 112.155C263.467 111.774 264.31 111.145 265.013 110.266L268.375 114.265C267.891 114.953 267.203 115.62 266.309 116.264C265.43 116.909 264.375 117.436 263.145 117.846C261.915 118.242 260.538 118.439 259.014 118.439ZM279.295 99.3013V118H271.89V94.2256H278.833L279.295 99.3013ZM278.416 105.3L276.68 105.344C276.68 103.527 276.9 101.909 277.339 100.488C277.779 99.0522 278.401 97.8364 279.207 96.8403C280.013 95.8442 280.972 95.0898 282.085 94.5771C283.213 94.0498 284.466 93.7861 285.843 93.7861C286.941 93.7861 287.945 93.9473 288.853 94.2695C289.776 94.5918 290.567 95.1118 291.226 95.8296C291.9 96.5474 292.413 97.4995 292.764 98.686C293.13 99.8579 293.313 101.308 293.313 103.037V118H285.865V103.015C285.865 102.062 285.733 101.337 285.469 100.839C285.206 100.327 284.825 99.9751 284.327 99.7847C283.829 99.5942 283.221 99.499 282.503 99.499C281.741 99.499 281.097 99.6455 280.569 99.9385C280.042 100.231 279.617 100.642 279.295 101.169C278.987 101.682 278.76 102.29 278.614 102.993C278.482 103.696 278.416 104.465 278.416 105.3ZM309.947 94.2256V99.3672H295.621V94.2256H309.947ZM298.631 88.3149H306.036V110.244C306.036 110.874 306.109 111.364 306.255 111.716C306.402 112.053 306.651 112.294 307.002 112.441C307.369 112.573 307.852 112.639 308.453 112.639C308.877 112.639 309.229 112.631 309.507 112.617C309.786 112.587 310.049 112.551 310.298 112.507V117.802C309.668 118.007 309.009 118.161 308.321 118.264C307.632 118.381 306.9 118.439 306.124 118.439C304.542 118.439 303.187 118.19 302.059 117.692C300.945 117.194 300.096 116.411 299.51 115.341C298.924 114.272 298.631 112.88 298.631 111.167V88.3149ZM325.24 112.023V102.224C325.24 101.55 325.145 100.971 324.954 100.488C324.764 100.004 324.463 99.6309 324.053 99.3672C323.643 99.0889 323.094 98.9497 322.405 98.9497C321.849 98.9497 321.373 99.0449 320.977 99.2354C320.582 99.4258 320.281 99.7114 320.076 100.092C319.871 100.473 319.769 100.957 319.769 101.542H312.364C312.364 100.444 312.605 99.4258 313.089 98.4883C313.587 97.5361 314.29 96.7085 315.198 96.0054C316.121 95.3022 317.22 94.7603 318.494 94.3794C319.783 93.9839 321.219 93.7861 322.801 93.7861C324.69 93.7861 326.375 94.1011 327.854 94.731C329.349 95.3608 330.528 96.3057 331.392 97.5654C332.256 98.8105 332.688 100.378 332.688 102.268V112.001C332.688 113.554 332.776 114.733 332.952 115.539C333.128 116.33 333.377 117.026 333.699 117.626V118H326.272C325.921 117.268 325.657 116.374 325.481 115.319C325.32 114.25 325.24 113.151 325.24 112.023ZM326.141 103.476L326.185 107.431H322.911C322.222 107.431 321.636 107.526 321.153 107.717C320.684 107.907 320.303 108.171 320.01 108.508C319.732 108.83 319.527 109.196 319.395 109.606C319.278 110.017 319.219 110.449 319.219 110.903C319.219 111.342 319.322 111.738 319.527 112.089C319.747 112.426 320.04 112.69 320.406 112.88C320.772 113.071 321.182 113.166 321.636 113.166C322.457 113.166 323.152 113.012 323.724 112.705C324.31 112.382 324.756 111.994 325.064 111.54C325.372 111.086 325.525 110.661 325.525 110.266L327.151 113.298C326.858 113.884 326.521 114.477 326.141 115.078C325.774 115.678 325.313 116.235 324.756 116.748C324.214 117.246 323.548 117.656 322.757 117.978C321.966 118.286 321.006 118.439 319.878 118.439C318.414 118.439 317.066 118.139 315.835 117.539C314.62 116.938 313.646 116.103 312.913 115.034C312.181 113.95 311.814 112.705 311.814 111.298C311.814 110.068 312.034 108.969 312.474 108.002C312.928 107.036 313.609 106.215 314.517 105.542C315.425 104.868 316.583 104.355 317.989 104.003C319.395 103.652 321.05 103.476 322.955 103.476H326.141ZM349.322 94.2256V99.3672H334.996V94.2256H349.322ZM338.006 88.3149H345.411V110.244C345.411 110.874 345.484 111.364 345.63 111.716C345.777 112.053 346.026 112.294 346.377 112.441C346.744 112.573 347.227 112.639 347.828 112.639C348.252 112.639 348.604 112.631 348.882 112.617C349.161 112.587 349.424 112.551 349.673 112.507V117.802C349.043 118.007 348.384 118.161 347.696 118.264C347.007 118.381 346.275 118.439 345.499 118.439C343.917 118.439 342.562 118.19 341.434 117.692C340.32 117.194 339.471 116.411 338.885 115.341C338.299 114.272 338.006 112.88 338.006 111.167V88.3149ZM360.088 94.2256V118H352.662V94.2256H360.088ZM352.222 88.0952C352.222 87.0405 352.603 86.1763 353.365 85.5024C354.126 84.8286 355.115 84.4917 356.331 84.4917C357.547 84.4917 358.536 84.8286 359.297 85.5024C360.059 86.1763 360.44 87.0405 360.44 88.0952C360.44 89.1499 360.059 90.0142 359.297 90.688C358.536 91.3618 357.547 91.6987 356.331 91.6987C355.115 91.6987 354.126 91.3618 353.365 90.688C352.603 90.0142 352.222 89.1499 352.222 88.0952ZM363.736 106.354V105.893C363.736 104.15 363.985 102.546 364.483 101.081C364.981 99.6016 365.713 98.3198 366.68 97.2358C367.647 96.1519 368.841 95.3096 370.262 94.709C371.683 94.0938 373.323 93.7861 375.184 93.7861C377.059 93.7861 378.707 94.0938 380.127 94.709C381.563 95.3096 382.764 96.1519 383.731 97.2358C384.698 98.3198 385.43 99.6016 385.928 101.081C386.426 102.546 386.675 104.15 386.675 105.893V106.354C386.675 108.083 386.426 109.687 385.928 111.167C385.43 112.631 384.698 113.913 383.731 115.012C382.764 116.096 381.57 116.938 380.149 117.539C378.729 118.139 377.088 118.439 375.228 118.439C373.367 118.439 371.719 118.139 370.284 117.539C368.848 116.938 367.647 116.096 366.68 115.012C365.713 113.913 364.981 112.631 364.483 111.167C363.985 109.687 363.736 108.083 363.736 106.354ZM371.141 105.893V106.354C371.141 107.248 371.207 108.083 371.338 108.859C371.47 109.636 371.69 110.317 371.998 110.903C372.305 111.474 372.723 111.921 373.25 112.243C373.777 112.565 374.437 112.727 375.228 112.727C376.004 112.727 376.648 112.565 377.161 112.243C377.688 111.921 378.106 111.474 378.414 110.903C378.721 110.317 378.941 109.636 379.073 108.859C379.205 108.083 379.271 107.248 379.271 106.354V105.893C379.271 105.029 379.205 104.216 379.073 103.454C378.941 102.678 378.721 101.997 378.414 101.411C378.106 100.81 377.688 100.341 377.161 100.004C376.634 99.6675 375.975 99.499 375.184 99.499C374.407 99.499 373.755 99.6675 373.228 100.004C372.715 100.341 372.305 100.81 371.998 101.411C371.69 101.997 371.47 102.678 371.338 103.454C371.207 104.216 371.141 105.029 371.141 105.893ZM397.244 99.3013V118H389.839V94.2256H396.783L397.244 99.3013ZM396.365 105.3L394.629 105.344C394.629 103.527 394.849 101.909 395.289 100.488C395.728 99.0522 396.351 97.8364 397.156 96.8403C397.962 95.8442 398.921 95.0898 400.035 94.5771C401.163 94.0498 402.415 93.7861 403.792 93.7861C404.891 93.7861 405.894 93.9473 406.802 94.2695C407.725 94.5918 408.516 95.1118 409.175 95.8296C409.849 96.5474 410.362 97.4995 410.713 98.686C411.08 99.8579 411.263 101.308 411.263 103.037V118H403.814V103.015C403.814 102.062 403.682 101.337 403.418 100.839C403.155 100.327 402.774 99.9751 402.276 99.7847C401.778 99.5942 401.17 99.499 400.452 99.499C399.69 99.499 399.046 99.6455 398.519 99.9385C397.991 100.231 397.566 100.642 397.244 101.169C396.937 101.682 396.709 102.29 396.563 102.993C396.431 103.696 396.365 104.465 396.365 105.3Z" fill="#424241"/>
<path d="M1363 15C1363 6.71573 1356.28 0 1348 0H1134V167H1348C1356.28 167 1363 160.284 1363 152V15Z" fill="#7E0F6D"/>
<path d="M1281.5 49H1216.5L1214 51.5V116.5L1216.5 119H1281.5L1284 116.5V51.5L1281.5 49ZM1279 114H1234V104H1245.5C1247 107 1250.5 109 1254 109C1259.5 109 1264 104.5 1264 99C1264 93.5 1259.5 89 1254 89C1248.5 89 1244 93.5 1244 99H1229V114H1219V54H1229V65.5C1226 67 1224 70.5 1224 74C1224 79.5 1228.5 84 1234 84C1239.5 84 1244 79.5 1244 74H1254C1254 79.5 1258.5 84 1264 84C1269.5 84 1274 79.5 1274 74C1274 68.5 1269.5 64 1264 64C1260.5 64 1257 66 1255.5 69H1242.5C1241 66 1237.5 64 1234 64V54H1279V114ZM1249 99C1249 96 1251 94 1254 94C1257 94 1259 96 1259 99C1259 102 1257 104 1254 104C1251 104 1249 102 1249 99ZM1234 69C1237 69 1239 71 1239 74C1239 77 1237 79 1234 79C1231 79 1229 77 1229 74C1229 71 1231 69 1234 69ZM1264 69C1267 69 1269 71 1269 74C1269 77 1267 79 1264 79C1261 79 1259 77 1259 74C1259 71 1261 69 1264 69Z" fill="white"/>
</svg>
