<svg width="1363" height="301" viewBox="0 0 1363 301" fill="none" xmlns="http://www.w3.org/2000/svg">
<rect width="1363" height="301" rx="15" fill="#F0F0F0"/>
<path d="M0 15C0 6.71573 6.71573 0 15 0H37V301H15C6.71573 301 0 294.284 0 286V15Z" fill="#7E0F6D"/>
<path d="M104.407 104.898V144H94.981V104.898H104.407ZM119.607 121.173V128.424H101.722V121.173H119.607ZM121.138 104.898V112.176H101.722V104.898H121.138ZM122.911 129.767V129.203C122.911 127.072 123.215 125.112 123.824 123.321C124.432 121.513 125.328 119.946 126.509 118.622C127.691 117.297 129.15 116.267 130.887 115.533C132.623 114.781 134.629 114.405 136.902 114.405C139.194 114.405 141.208 114.781 142.945 115.533C144.699 116.267 146.167 117.297 147.349 118.622C148.531 119.946 149.426 121.513 150.035 123.321C150.643 125.112 150.948 127.072 150.948 129.203V129.767C150.948 131.879 150.643 133.84 150.035 135.648C149.426 137.438 148.531 139.005 147.349 140.348C146.167 141.673 144.708 142.702 142.972 143.436C141.235 144.17 139.23 144.537 136.956 144.537C134.682 144.537 132.668 144.17 130.914 143.436C129.159 142.702 127.691 141.673 126.509 140.348C125.328 139.005 124.432 137.438 123.824 135.648C123.215 133.84 122.911 131.879 122.911 129.767ZM131.961 129.203V129.767C131.961 130.859 132.042 131.879 132.203 132.828C132.364 133.777 132.632 134.61 133.008 135.326C133.384 136.024 133.895 136.57 134.539 136.964C135.184 137.358 135.989 137.555 136.956 137.555C137.905 137.555 138.693 137.358 139.319 136.964C139.964 136.57 140.474 136.024 140.85 135.326C141.226 134.61 141.495 133.777 141.656 132.828C141.817 131.879 141.897 130.859 141.897 129.767V129.203C141.897 128.146 141.817 127.153 141.656 126.222C141.495 125.273 141.226 124.44 140.85 123.724C140.474 122.99 139.964 122.417 139.319 122.005C138.675 121.594 137.869 121.388 136.902 121.388C135.953 121.388 135.157 121.594 134.512 122.005C133.886 122.417 133.384 122.99 133.008 123.724C132.632 124.44 132.364 125.273 132.203 126.222C132.042 127.153 131.961 128.146 131.961 129.203ZM153.848 129.767V129.203C153.848 127.072 154.153 125.112 154.761 123.321C155.37 121.513 156.265 119.946 157.447 118.622C158.628 117.297 160.088 116.267 161.824 115.533C163.561 114.781 165.566 114.405 167.84 114.405C170.132 114.405 172.146 114.781 173.882 115.533C175.637 116.267 177.105 117.297 178.287 118.622C179.468 119.946 180.363 121.513 180.972 123.321C181.581 125.112 181.885 127.072 181.885 129.203V129.767C181.885 131.879 181.581 133.84 180.972 135.648C180.363 137.438 179.468 139.005 178.287 140.348C177.105 141.673 175.646 142.702 173.909 143.436C172.173 144.17 170.167 144.537 167.894 144.537C165.62 144.537 163.606 144.17 161.851 143.436C160.097 142.702 158.628 141.673 157.447 140.348C156.265 139.005 155.37 137.438 154.761 135.648C154.153 133.84 153.848 131.879 153.848 129.767ZM162.898 129.203V129.767C162.898 130.859 162.979 131.879 163.14 132.828C163.301 133.777 163.57 134.61 163.946 135.326C164.322 136.024 164.832 136.57 165.477 136.964C166.121 137.358 166.927 137.555 167.894 137.555C168.842 137.555 169.63 137.358 170.257 136.964C170.901 136.57 171.412 136.024 171.788 135.326C172.164 134.61 172.432 133.777 172.593 132.828C172.754 131.879 172.835 130.859 172.835 129.767V129.203C172.835 128.146 172.754 127.153 172.593 126.222C172.432 125.273 172.164 124.44 171.788 123.724C171.412 122.99 170.901 122.417 170.257 122.005C169.612 121.594 168.807 121.388 167.84 121.388C166.891 121.388 166.094 121.594 165.45 122.005C164.823 122.417 164.322 122.99 163.946 123.724C163.57 124.44 163.301 125.273 163.14 126.222C162.979 127.153 162.898 128.146 162.898 129.203ZM202.618 137.34V102.75H211.722V144H203.558L202.618 137.34ZM184.786 129.82V129.256C184.786 127.054 185.027 125.049 185.511 123.241C185.994 121.415 186.71 119.848 187.659 118.541C188.608 117.216 189.79 116.196 191.204 115.479C192.618 114.763 194.248 114.405 196.092 114.405C197.739 114.405 199.18 114.79 200.416 115.56C201.651 116.312 202.707 117.368 203.584 118.729C204.462 120.09 205.178 121.683 205.733 123.509C206.288 125.318 206.709 127.269 206.995 129.364V130.035C206.709 132.005 206.288 133.867 205.733 135.621C205.178 137.358 204.462 138.897 203.584 140.24C202.707 141.583 201.642 142.639 200.389 143.409C199.153 144.161 197.703 144.537 196.038 144.537C194.194 144.537 192.565 144.17 191.15 143.436C189.754 142.702 188.581 141.673 187.632 140.348C186.701 139.023 185.994 137.465 185.511 135.675C185.027 133.884 184.786 131.933 184.786 129.82ZM193.836 129.256V129.82C193.836 130.912 193.908 131.924 194.051 132.855C194.194 133.786 194.436 134.61 194.776 135.326C195.134 136.024 195.599 136.57 196.172 136.964C196.763 137.358 197.488 137.555 198.348 137.555C199.511 137.555 200.469 137.277 201.221 136.722C201.991 136.167 202.555 135.379 202.913 134.359C203.289 133.338 203.45 132.139 203.396 130.76V128.639C203.432 127.457 203.352 126.419 203.155 125.523C202.958 124.61 202.645 123.849 202.215 123.241C201.803 122.632 201.275 122.175 200.63 121.871C200.004 121.549 199.261 121.388 198.401 121.388C197.56 121.388 196.844 121.585 196.253 121.979C195.68 122.372 195.215 122.927 194.856 123.644C194.498 124.342 194.239 125.174 194.078 126.141C193.917 127.09 193.836 128.128 193.836 129.256ZM217.281 104.898H232.669C235.677 104.898 238.291 105.346 240.511 106.241C242.731 107.136 244.441 108.461 245.64 110.216C246.858 111.97 247.466 114.137 247.466 116.715C247.466 118.953 247.117 120.824 246.419 122.328C245.721 123.832 244.745 125.076 243.492 126.061C242.256 127.027 240.815 127.824 239.168 128.451L236.08 130.196H223.162L223.108 122.918H232.669C233.868 122.918 234.862 122.704 235.65 122.274C236.438 121.844 237.028 121.236 237.422 120.448C237.834 119.642 238.04 118.684 238.04 117.574C238.04 116.446 237.834 115.479 237.422 114.674C237.011 113.868 236.402 113.25 235.596 112.821C234.808 112.391 233.833 112.176 232.669 112.176H226.707V144H217.281V104.898ZM238.685 144L230.037 126.705L240.027 126.651L248.782 143.597V144H238.685ZM266.802 144.537C264.439 144.537 262.326 144.17 260.464 143.436C258.602 142.684 257.027 141.655 255.738 140.348C254.467 139.041 253.491 137.537 252.811 135.836C252.148 134.135 251.817 132.336 251.817 130.438V129.417C251.817 127.287 252.112 125.318 252.703 123.509C253.294 121.683 254.171 120.09 255.335 118.729C256.499 117.368 257.958 116.312 259.712 115.56C261.467 114.79 263.508 114.405 265.835 114.405C267.894 114.405 269.738 114.736 271.368 115.399C272.997 116.061 274.375 117.01 275.503 118.246C276.649 119.481 277.518 120.976 278.108 122.73C278.717 124.485 279.021 126.454 279.021 128.639V132.318H255.281V126.651H270.186V125.953C270.204 124.986 270.034 124.163 269.676 123.482C269.336 122.802 268.834 122.283 268.172 121.925C267.509 121.567 266.704 121.388 265.755 121.388C264.77 121.388 263.956 121.603 263.311 122.032C262.684 122.462 262.192 123.053 261.834 123.805C261.494 124.539 261.252 125.389 261.109 126.356C260.966 127.323 260.894 128.343 260.894 129.417V130.438C260.894 131.512 261.037 132.488 261.324 133.365C261.628 134.243 262.058 134.994 262.613 135.621C263.186 136.23 263.866 136.704 264.654 137.044C265.459 137.385 266.373 137.555 267.393 137.555C268.628 137.555 269.846 137.322 271.045 136.856C272.245 136.391 273.274 135.621 274.134 134.547L278.243 139.435C277.652 140.276 276.81 141.091 275.718 141.878C274.644 142.666 273.355 143.311 271.851 143.812C270.347 144.295 268.664 144.537 266.802 144.537ZM294.974 137.555C295.815 137.555 296.531 137.403 297.122 137.098C297.731 136.776 298.187 136.328 298.492 135.755C298.814 135.165 298.966 134.457 298.948 133.634H307.461C307.479 135.818 306.942 137.734 305.85 139.381C304.776 141.01 303.308 142.281 301.446 143.194C299.602 144.09 297.516 144.537 295.188 144.537C292.915 144.537 290.927 144.17 289.227 143.436C287.526 142.684 286.102 141.646 284.957 140.321C283.829 138.978 282.978 137.411 282.405 135.621C281.85 133.831 281.573 131.888 281.573 129.793V129.176C281.573 127.081 281.85 125.139 282.405 123.348C282.978 121.54 283.829 119.973 284.957 118.648C286.102 117.306 287.517 116.267 289.2 115.533C290.901 114.781 292.879 114.405 295.135 114.405C297.552 114.405 299.682 114.862 301.526 115.775C303.388 116.688 304.847 118.013 305.904 119.75C306.96 121.486 307.479 123.59 307.461 126.061H298.948C298.966 125.183 298.832 124.396 298.545 123.697C298.259 122.999 297.811 122.444 297.203 122.032C296.612 121.603 295.851 121.388 294.92 121.388C293.989 121.388 293.237 121.594 292.664 122.005C292.091 122.417 291.653 122.99 291.348 123.724C291.062 124.44 290.865 125.264 290.757 126.195C290.668 127.126 290.623 128.119 290.623 129.176V129.793C290.623 130.868 290.668 131.879 290.757 132.828C290.865 133.759 291.071 134.583 291.375 135.299C291.679 135.997 292.118 136.552 292.691 136.964C293.264 137.358 294.025 137.555 294.974 137.555ZM320.889 114.942V144H311.812V114.942H320.889ZM311.275 107.45C311.275 106.161 311.74 105.104 312.671 104.281C313.602 103.457 314.811 103.045 316.297 103.045C317.783 103.045 318.991 103.457 319.922 104.281C320.853 105.104 321.319 106.161 321.319 107.45C321.319 108.739 320.853 109.795 319.922 110.619C318.991 111.442 317.783 111.854 316.297 111.854C314.811 111.854 313.602 111.442 312.671 110.619C311.74 109.795 311.275 108.739 311.275 107.45ZM335.606 120.528V155.172H326.556V114.942H334.988L335.606 120.528ZM353.438 129.122V129.686C353.438 131.799 353.196 133.759 352.713 135.567C352.229 137.376 351.513 138.951 350.564 140.294C349.616 141.637 348.434 142.684 347.02 143.436C345.623 144.17 344.003 144.537 342.159 144.537C340.422 144.537 338.927 144.152 337.674 143.382C336.421 142.612 335.373 141.547 334.532 140.187C333.69 138.826 333.01 137.268 332.491 135.514C331.972 133.759 331.56 131.906 331.255 129.955V129.229C331.56 127.135 331.972 125.192 332.491 123.402C333.01 121.594 333.69 120.018 334.532 118.675C335.373 117.333 336.412 116.285 337.647 115.533C338.9 114.781 340.395 114.405 342.132 114.405C343.976 114.405 345.596 114.754 346.993 115.453C348.407 116.151 349.589 117.153 350.538 118.46C351.504 119.75 352.229 121.298 352.713 123.106C353.196 124.915 353.438 126.92 353.438 129.122ZM344.388 129.686V129.122C344.388 127.994 344.307 126.965 344.146 126.034C343.985 125.085 343.725 124.261 343.367 123.563C343.027 122.865 342.57 122.328 341.998 121.952C341.425 121.576 340.717 121.388 339.876 121.388C338.909 121.388 338.095 121.54 337.432 121.844C336.788 122.131 336.268 122.578 335.875 123.187C335.499 123.778 335.23 124.521 335.069 125.416C334.926 126.293 334.863 127.323 334.881 128.504V130.707C334.845 132.067 334.979 133.267 335.284 134.305C335.588 135.326 336.116 136.122 336.868 136.695C337.62 137.268 338.641 137.555 339.93 137.555C340.789 137.555 341.505 137.358 342.078 136.964C342.651 136.552 343.108 135.988 343.448 135.272C343.788 134.538 344.03 133.696 344.173 132.748C344.316 131.799 344.388 130.778 344.388 129.686ZM371.539 144.537C369.175 144.537 367.063 144.17 365.201 143.436C363.339 142.684 361.763 141.655 360.474 140.348C359.203 139.041 358.227 137.537 357.547 135.836C356.884 134.135 356.553 132.336 356.553 130.438V129.417C356.553 127.287 356.849 125.318 357.439 123.509C358.03 121.683 358.908 120.09 360.071 118.729C361.235 117.368 362.694 116.312 364.449 115.56C366.203 114.79 368.244 114.405 370.572 114.405C372.631 114.405 374.475 114.736 376.104 115.399C377.733 116.061 379.112 117.01 380.24 118.246C381.386 119.481 382.254 120.976 382.845 122.73C383.453 124.485 383.758 126.454 383.758 128.639V132.318H360.018V126.651H374.922V125.953C374.94 124.986 374.77 124.163 374.412 123.482C374.072 122.802 373.571 122.283 372.908 121.925C372.246 121.567 371.44 121.388 370.491 121.388C369.507 121.388 368.692 121.603 368.047 122.032C367.421 122.462 366.928 123.053 366.57 123.805C366.23 124.539 365.988 125.389 365.845 126.356C365.702 127.323 365.63 128.343 365.63 129.417V130.438C365.63 131.512 365.774 132.488 366.06 133.365C366.364 134.243 366.794 134.994 367.349 135.621C367.922 136.23 368.602 136.704 369.39 137.044C370.196 137.385 371.109 137.555 372.129 137.555C373.365 137.555 374.582 137.322 375.782 136.856C376.981 136.391 378.011 135.621 378.87 134.547L382.979 139.435C382.388 140.276 381.547 141.091 380.455 141.878C379.38 142.666 378.091 143.311 376.587 143.812C375.083 144.295 373.401 144.537 371.539 144.537ZM402.664 135.836C402.664 135.335 402.494 134.905 402.154 134.547C401.832 134.171 401.259 133.831 400.435 133.526C399.611 133.204 398.457 132.882 396.971 132.56C395.556 132.255 394.222 131.852 392.969 131.351C391.734 130.85 390.651 130.241 389.72 129.525C388.789 128.809 388.055 127.958 387.518 126.974C386.998 125.989 386.739 124.861 386.739 123.59C386.739 122.354 386.998 121.191 387.518 120.099C388.055 118.989 388.833 118.013 389.854 117.171C390.892 116.312 392.155 115.641 393.641 115.157C395.127 114.656 396.819 114.405 398.716 114.405C401.33 114.405 403.586 114.808 405.484 115.614C407.382 116.402 408.841 117.512 409.861 118.944C410.9 120.358 411.419 121.996 411.419 123.858H402.369C402.369 123.124 402.243 122.498 401.993 121.979C401.76 121.459 401.375 121.065 400.838 120.797C400.301 120.51 399.585 120.367 398.689 120.367C398.063 120.367 397.49 120.484 396.971 120.716C396.469 120.949 396.067 121.271 395.762 121.683C395.458 122.095 395.306 122.578 395.306 123.133C395.306 123.527 395.395 123.885 395.574 124.208C395.771 124.512 396.067 124.798 396.46 125.067C396.854 125.318 397.356 125.55 397.964 125.765C398.573 125.962 399.307 126.141 400.167 126.302C402.118 126.66 403.944 127.171 405.645 127.833C407.346 128.495 408.724 129.435 409.781 130.653C410.855 131.87 411.392 133.508 411.392 135.567C411.392 136.856 411.097 138.047 410.506 139.139C409.915 140.213 409.065 141.162 407.955 141.986C406.845 142.792 405.511 143.418 403.953 143.866C402.396 144.313 400.641 144.537 398.689 144.537C395.914 144.537 393.569 144.045 391.653 143.06C389.738 142.057 388.287 140.804 387.303 139.3C386.336 137.778 385.853 136.239 385.853 134.681H394.285C394.321 135.576 394.536 136.31 394.93 136.883C395.341 137.456 395.888 137.877 396.568 138.146C397.248 138.414 398.036 138.548 398.931 138.548C399.755 138.548 400.435 138.432 400.972 138.199C401.527 137.966 401.948 137.653 402.234 137.259C402.521 136.847 402.664 136.373 402.664 135.836Z" fill="black"/>
<path d="M96.563 55.1172H100.904L107.295 73.3862L113.687 55.1172H118.028L109.039 80H105.552L96.563 55.1172ZM94.2217 55.1172H98.5454L99.3315 72.9248V80H94.2217V55.1172ZM116.045 55.1172H120.386V80H115.259V72.9248L116.045 55.1172ZM134.554 75.8301V67.5928C134.554 67.0003 134.457 66.4933 134.263 66.0718C134.069 65.6388 133.768 65.3027 133.357 65.0635C132.959 64.8242 132.44 64.7046 131.802 64.7046C131.255 64.7046 130.783 64.8014 130.384 64.9951C129.985 65.1774 129.677 65.4451 129.461 65.7983C129.244 66.1401 129.136 66.5446 129.136 67.0117H124.214C124.214 66.2256 124.397 65.4793 124.761 64.7729C125.126 64.0666 125.656 63.4456 126.351 62.9102C127.046 62.3633 127.872 61.936 128.829 61.6284C129.797 61.3208 130.879 61.167 132.076 61.167C133.511 61.167 134.787 61.4062 135.904 61.8848C137.02 62.3633 137.898 63.0811 138.536 64.0381C139.185 64.9951 139.51 66.1914 139.51 67.627V75.5396C139.51 76.5535 139.572 77.3853 139.698 78.0347C139.823 78.6727 140.005 79.231 140.245 79.7095V80H135.271C135.032 79.4987 134.85 78.8721 134.725 78.1201C134.611 77.3568 134.554 76.5934 134.554 75.8301ZM135.203 68.7378L135.237 71.5234H132.486C131.836 71.5234 131.272 71.5975 130.794 71.7456C130.315 71.8937 129.922 72.1045 129.615 72.3779C129.307 72.64 129.079 72.9476 128.931 73.3008C128.794 73.654 128.726 74.0413 128.726 74.4629C128.726 74.8844 128.823 75.2661 129.017 75.6079C129.21 75.9383 129.489 76.2004 129.854 76.394C130.219 76.5763 130.646 76.6675 131.136 76.6675C131.876 76.6675 132.52 76.5194 133.067 76.2231C133.614 75.9269 134.035 75.5623 134.332 75.1294C134.639 74.6965 134.799 74.2863 134.81 73.8989L136.109 75.9839C135.927 76.451 135.676 76.9352 135.357 77.4365C135.049 77.9378 134.656 78.4106 134.178 78.855C133.699 79.2879 133.124 79.6468 132.452 79.9316C131.779 80.2051 130.982 80.3418 130.059 80.3418C128.886 80.3418 127.82 80.1082 126.863 79.6411C125.918 79.1626 125.166 78.5075 124.607 77.6758C124.061 76.8327 123.787 75.8757 123.787 74.8047C123.787 73.8363 123.969 72.9761 124.334 72.2241C124.699 71.4722 125.234 70.8398 125.94 70.3271C126.658 69.8031 127.553 69.41 128.624 69.1479C129.694 68.8745 130.936 68.7378 132.349 68.7378H135.203ZM148.499 53.75V80H143.56V53.75H148.499ZM162.547 75.8301V67.5928C162.547 67.0003 162.45 66.4933 162.256 66.0718C162.063 65.6388 161.761 65.3027 161.351 65.0635C160.952 64.8242 160.433 64.7046 159.795 64.7046C159.249 64.7046 158.776 64.8014 158.377 64.9951C157.978 65.1774 157.671 65.4451 157.454 65.7983C157.238 66.1401 157.129 66.5446 157.129 67.0117H152.208C152.208 66.2256 152.39 65.4793 152.754 64.7729C153.119 64.0666 153.649 63.4456 154.344 62.9102C155.039 62.3633 155.865 61.936 156.822 61.6284C157.79 61.3208 158.873 61.167 160.069 61.167C161.504 61.167 162.78 61.4062 163.897 61.8848C165.014 62.3633 165.891 63.0811 166.529 64.0381C167.178 64.9951 167.503 66.1914 167.503 67.627V75.5396C167.503 76.5535 167.566 77.3853 167.691 78.0347C167.816 78.6727 167.999 79.231 168.238 79.7095V80H163.265C163.025 79.4987 162.843 78.8721 162.718 78.1201C162.604 77.3568 162.547 76.5934 162.547 75.8301ZM163.196 68.7378L163.23 71.5234H160.479C159.83 71.5234 159.266 71.5975 158.787 71.7456C158.309 71.8937 157.916 72.1045 157.608 72.3779C157.3 72.64 157.072 72.9476 156.924 73.3008C156.788 73.654 156.719 74.0413 156.719 74.4629C156.719 74.8844 156.816 75.2661 157.01 75.6079C157.203 75.9383 157.483 76.2004 157.847 76.394C158.212 76.5763 158.639 76.6675 159.129 76.6675C159.869 76.6675 160.513 76.5194 161.06 76.2231C161.607 75.9269 162.028 75.5623 162.325 75.1294C162.632 74.6965 162.792 74.2863 162.803 73.8989L164.102 75.9839C163.92 76.451 163.669 76.9352 163.35 77.4365C163.042 77.9378 162.649 78.4106 162.171 78.855C161.692 79.2879 161.117 79.6468 160.445 79.9316C159.773 80.2051 158.975 80.3418 158.052 80.3418C156.879 80.3418 155.813 80.1082 154.856 79.6411C153.911 79.1626 153.159 78.5075 152.601 77.6758C152.054 76.8327 151.78 75.8757 151.78 74.8047C151.78 73.8363 151.963 72.9761 152.327 72.2241C152.692 71.4722 153.227 70.8398 153.934 70.3271C154.651 69.8031 155.546 69.41 156.617 69.1479C157.688 68.8745 158.93 68.7378 160.342 68.7378H163.196ZM176.219 53.7329V80H171.297V53.7329H176.219ZM187.874 61.5088L179.842 70.6689L175.535 75.0269L173.741 71.4722L177.159 67.1313L181.961 61.5088H187.874ZM182.764 80L177.295 71.4551L180.696 68.4814L188.438 80H182.764ZM211.971 73.4888C211.971 73.0444 211.902 72.6457 211.766 72.2925C211.64 71.9279 211.401 71.5975 211.048 71.3013C210.695 70.9937 210.199 70.6917 209.561 70.3955C208.923 70.0993 208.097 69.7917 207.083 69.4727C205.955 69.1081 204.884 68.6979 203.87 68.2422C202.868 67.7865 201.979 67.2567 201.204 66.6528C200.441 66.0376 199.837 65.3255 199.393 64.5166C198.96 63.7077 198.743 62.7677 198.743 61.6968C198.743 60.66 198.971 59.7201 199.427 58.877C199.882 58.0225 200.521 57.2933 201.341 56.6895C202.161 56.0742 203.13 55.6014 204.246 55.271C205.374 54.9406 206.61 54.7754 207.955 54.7754C209.789 54.7754 211.39 55.1058 212.757 55.7666C214.124 56.4274 215.184 57.3332 215.936 58.4839C216.699 59.6346 217.081 60.9505 217.081 62.4316H211.988C211.988 61.7025 211.834 61.0645 211.526 60.5176C211.23 59.9593 210.774 59.5207 210.159 59.2017C209.555 58.8826 208.792 58.7231 207.869 58.7231C206.98 58.7231 206.24 58.8599 205.647 59.1333C205.055 59.3953 204.611 59.7542 204.314 60.21C204.018 60.6543 203.87 61.1556 203.87 61.7139C203.87 62.1354 203.973 62.5171 204.178 62.8589C204.394 63.2007 204.713 63.5197 205.135 63.8159C205.556 64.1121 206.075 64.3913 206.69 64.6533C207.305 64.9154 208.017 65.1717 208.826 65.4224C210.182 65.8325 211.373 66.2939 212.398 66.8066C213.435 67.3193 214.301 67.8947 214.996 68.5327C215.691 69.1707 216.215 69.8942 216.568 70.7031C216.921 71.512 217.098 72.4292 217.098 73.4546C217.098 74.5369 216.887 75.5054 216.465 76.3599C216.044 77.2144 215.434 77.9378 214.637 78.5303C213.839 79.1227 212.888 79.5728 211.783 79.8804C210.678 80.188 209.441 80.3418 208.074 80.3418C206.844 80.3418 205.63 80.1823 204.434 79.8633C203.238 79.5329 202.15 79.0373 201.17 78.3765C200.201 77.7157 199.427 76.8726 198.846 75.8472C198.265 74.8218 197.974 73.6084 197.974 72.207H203.118C203.118 72.9818 203.238 73.6369 203.477 74.1724C203.716 74.7078 204.052 75.1408 204.485 75.4712C204.93 75.8016 205.454 76.0409 206.058 76.189C206.673 76.3371 207.345 76.4111 208.074 76.4111C208.963 76.4111 209.692 76.2858 210.262 76.0352C210.843 75.7845 211.27 75.437 211.543 74.9927C211.828 74.5483 211.971 74.047 211.971 73.4888ZM225.079 53.75V80H220.157V53.75H225.079ZM224.378 70.105H223.028C223.039 68.8175 223.21 67.6326 223.541 66.5503C223.871 65.4565 224.344 64.5109 224.959 63.7134C225.574 62.9045 226.309 62.2778 227.164 61.8335C228.029 61.3892 228.986 61.167 230.035 61.167C230.946 61.167 231.772 61.298 232.513 61.5601C233.265 61.8107 233.908 62.2209 234.444 62.7905C234.991 63.3488 235.412 64.0837 235.708 64.9951C236.005 65.9066 236.153 67.0117 236.153 68.3105V80H231.197V68.2764C231.197 67.4561 231.077 66.8123 230.838 66.3452C230.61 65.8667 230.274 65.5306 229.83 65.3369C229.397 65.1318 228.861 65.0293 228.223 65.0293C227.517 65.0293 226.913 65.1603 226.412 65.4224C225.922 65.6844 225.529 66.049 225.232 66.5161C224.936 66.9718 224.72 67.5073 224.583 68.1226C224.446 68.7378 224.378 69.3986 224.378 70.105ZM249.876 75.8301V67.5928C249.876 67.0003 249.779 66.4933 249.585 66.0718C249.392 65.6388 249.09 65.3027 248.68 65.0635C248.281 64.8242 247.763 64.7046 247.125 64.7046C246.578 64.7046 246.105 64.8014 245.706 64.9951C245.307 65.1774 245 65.4451 244.783 65.7983C244.567 66.1401 244.458 66.5446 244.458 67.0117H239.537C239.537 66.2256 239.719 65.4793 240.083 64.7729C240.448 64.0666 240.978 63.4456 241.673 62.9102C242.368 62.3633 243.194 61.936 244.151 61.6284C245.119 61.3208 246.202 61.167 247.398 61.167C248.833 61.167 250.11 61.4062 251.226 61.8848C252.343 62.3633 253.22 63.0811 253.858 64.0381C254.507 64.9951 254.832 66.1914 254.832 67.627V75.5396C254.832 76.5535 254.895 77.3853 255.02 78.0347C255.145 78.6727 255.328 79.231 255.567 79.7095V80H250.594C250.354 79.4987 250.172 78.8721 250.047 78.1201C249.933 77.3568 249.876 76.5934 249.876 75.8301ZM250.525 68.7378L250.56 71.5234H247.808C247.159 71.5234 246.595 71.5975 246.116 71.7456C245.638 71.8937 245.245 72.1045 244.937 72.3779C244.629 72.64 244.402 72.9476 244.253 73.3008C244.117 73.654 244.048 74.0413 244.048 74.4629C244.048 74.8844 244.145 75.2661 244.339 75.6079C244.533 75.9383 244.812 76.2004 245.176 76.394C245.541 76.5763 245.968 76.6675 246.458 76.6675C247.199 76.6675 247.842 76.5194 248.389 76.2231C248.936 75.9269 249.358 75.5623 249.654 75.1294C249.961 74.6965 250.121 74.2863 250.132 73.8989L251.431 75.9839C251.249 76.451 250.998 76.9352 250.679 77.4365C250.372 77.9378 249.979 78.4106 249.5 78.855C249.021 79.2879 248.446 79.6468 247.774 79.9316C247.102 80.2051 246.304 80.3418 245.381 80.3418C244.208 80.3418 243.143 80.1082 242.186 79.6411C241.24 79.1626 240.488 78.5075 239.93 77.6758C239.383 76.8327 239.109 75.8757 239.109 74.8047C239.109 73.8363 239.292 72.9761 239.656 72.2241C240.021 71.4722 240.556 70.8398 241.263 70.3271C241.98 69.8031 242.875 69.41 243.946 69.1479C245.017 68.8745 246.259 68.7378 247.671 68.7378H250.525ZM267.137 80.3418C265.701 80.3418 264.414 80.1139 263.274 79.6582C262.135 79.1911 261.167 78.5474 260.369 77.7271C259.583 76.9067 258.979 75.9554 258.558 74.873C258.136 73.7793 257.925 72.6172 257.925 71.3867V70.7031C257.925 69.3018 258.125 68.02 258.523 66.8579C258.922 65.6958 259.492 64.6875 260.232 63.833C260.984 62.9785 261.896 62.3234 262.967 61.8677C264.038 61.4006 265.245 61.167 266.59 61.167C267.9 61.167 269.062 61.3835 270.076 61.8164C271.09 62.2493 271.939 62.8646 272.623 63.6621C273.318 64.4596 273.842 65.4167 274.195 66.5332C274.548 67.6383 274.725 68.8688 274.725 70.2246V72.2754H260.027V68.9941H269.888V68.6182C269.888 67.9346 269.763 67.325 269.512 66.7896C269.273 66.2427 268.908 65.8097 268.418 65.4907C267.929 65.1717 267.302 65.0122 266.539 65.0122C265.889 65.0122 265.331 65.1546 264.864 65.4395C264.397 65.7243 264.015 66.123 263.719 66.6357C263.434 67.1484 263.217 67.7523 263.069 68.4473C262.933 69.1309 262.864 69.8828 262.864 70.7031V71.3867C262.864 72.1273 262.967 72.8109 263.172 73.4375C263.388 74.0641 263.69 74.6053 264.078 75.061C264.476 75.5168 264.955 75.87 265.513 76.1206C266.083 76.3713 266.727 76.4966 267.444 76.4966C268.333 76.4966 269.159 76.3257 269.922 75.9839C270.697 75.6307 271.364 75.1009 271.922 74.3945L274.314 76.9922C273.927 77.5505 273.397 78.0859 272.725 78.5986C272.064 79.1113 271.267 79.5329 270.333 79.8633C269.398 80.1823 268.333 80.3418 267.137 80.3418ZM282.449 65.542V80H277.527V61.5088H282.159L282.449 65.542ZM288.021 61.3892L287.935 65.9521C287.696 65.918 287.405 65.8895 287.063 65.8667C286.733 65.8325 286.431 65.8154 286.158 65.8154C285.463 65.8154 284.859 65.9066 284.346 66.0889C283.845 66.2598 283.423 66.5161 283.082 66.8579C282.751 67.1997 282.5 67.6156 282.33 68.1055C282.17 68.5954 282.079 69.1536 282.056 69.7803L281.065 69.4727C281.065 68.2764 281.185 67.1769 281.424 66.1743C281.663 65.1603 282.011 64.2773 282.466 63.5254C282.933 62.7734 283.503 62.1924 284.175 61.7822C284.847 61.3721 285.617 61.167 286.482 61.167C286.756 61.167 287.035 61.1898 287.32 61.2354C287.605 61.2695 287.838 61.3208 288.021 61.3892Z" fill="#888888"/>
<rect x="92" y="181" width="1179" height="80" rx="13.3333" fill="#CCCCCC"/>
<rect x="107" y="196.333" width="208" height="49.3333" rx="4.66667" fill="#888888" stroke="#888888" stroke-width="4"/>
<path d="M190.771 213.167V228.333H187.125L181.76 218.896V228.333H178.104V213.167H181.76L187.125 222.604V213.167H190.771ZM198.375 228.542C197.458 228.542 196.639 228.399 195.917 228.115C195.194 227.823 194.583 227.424 194.083 226.917C193.59 226.41 193.212 225.826 192.948 225.167C192.691 224.507 192.563 223.809 192.563 223.073V222.677C192.563 221.851 192.677 221.087 192.906 220.385C193.135 219.677 193.476 219.059 193.927 218.531C194.378 218.003 194.944 217.594 195.625 217.302C196.306 217.003 197.097 216.854 198 216.854C198.799 216.854 199.514 216.983 200.146 217.24C200.778 217.497 201.313 217.865 201.75 218.344C202.194 218.823 202.531 219.403 202.76 220.083C202.997 220.764 203.115 221.528 203.115 222.375V223.802H193.906V221.604H199.688V221.333C199.694 220.958 199.628 220.639 199.49 220.375C199.358 220.111 199.163 219.91 198.906 219.771C198.649 219.632 198.337 219.562 197.969 219.562C197.587 219.562 197.271 219.646 197.021 219.812C196.778 219.979 196.587 220.208 196.448 220.5C196.316 220.785 196.222 221.115 196.167 221.49C196.111 221.865 196.083 222.26 196.083 222.677V223.073C196.083 223.49 196.139 223.868 196.25 224.208C196.368 224.549 196.535 224.84 196.75 225.083C196.972 225.319 197.236 225.503 197.542 225.635C197.854 225.767 198.208 225.833 198.604 225.833C199.083 225.833 199.556 225.743 200.021 225.562C200.486 225.382 200.885 225.083 201.219 224.667L202.813 226.562C202.583 226.889 202.257 227.205 201.833 227.51C201.417 227.816 200.917 228.066 200.333 228.26C199.75 228.448 199.097 228.542 198.375 228.542ZM207.521 217.062L209.104 220.167L210.74 217.062H214.385L211.427 222.552L214.542 228.333H210.865L209.104 225L207.354 228.333H203.677L206.792 222.552L203.844 217.062H207.521ZM221.479 217.062V219.5H214.688V217.062H221.479ZM216.115 214.26H219.625V224.656C219.625 224.955 219.66 225.187 219.729 225.354C219.799 225.514 219.917 225.628 220.083 225.698C220.257 225.76 220.486 225.792 220.771 225.792C220.972 225.792 221.139 225.788 221.271 225.781C221.403 225.767 221.528 225.75 221.646 225.729V228.24C221.347 228.337 221.035 228.41 220.708 228.458C220.382 228.514 220.035 228.542 219.667 228.542C218.917 228.542 218.274 228.424 217.74 228.187C217.212 227.951 216.809 227.58 216.531 227.073C216.253 226.566 216.115 225.906 216.115 225.094V214.26ZM223.104 226.687C223.104 226.187 223.285 225.771 223.646 225.437C224.007 225.097 224.472 224.927 225.042 224.927C225.618 224.927 226.083 225.097 226.438 225.437C226.799 225.771 226.979 226.187 226.979 226.687C226.979 227.187 226.799 227.608 226.438 227.948C226.083 228.281 225.618 228.448 225.042 228.448C224.472 228.448 224.007 228.281 223.646 227.948C223.285 227.608 223.104 227.187 223.104 226.687ZM229.594 217.062H233.115V228.698C233.115 229.601 232.941 230.361 232.594 230.979C232.247 231.604 231.75 232.076 231.104 232.396C230.458 232.722 229.688 232.885 228.792 232.885C228.493 232.885 228.219 232.872 227.969 232.844C227.712 232.823 227.431 232.778 227.125 232.708V230.052C227.306 230.08 227.472 230.101 227.625 230.115C227.778 230.135 227.944 230.146 228.125 230.146C228.444 230.146 228.712 230.094 228.927 229.99C229.142 229.885 229.306 229.726 229.417 229.51C229.535 229.295 229.594 229.024 229.594 228.698V217.062ZM229.333 214.156C229.333 213.656 229.514 213.247 229.875 212.927C230.236 212.608 230.705 212.448 231.281 212.448C231.858 212.448 232.326 212.608 232.688 212.927C233.049 213.247 233.229 213.656 233.229 214.156C233.229 214.656 233.049 215.066 232.688 215.385C232.326 215.705 231.858 215.865 231.281 215.865C230.705 215.865 230.236 215.705 229.875 215.385C229.514 215.066 229.333 214.656 229.333 214.156ZM241.01 225.167C241.01 224.972 240.944 224.806 240.813 224.667C240.688 224.521 240.465 224.389 240.146 224.271C239.826 224.146 239.378 224.021 238.802 223.896C238.253 223.778 237.736 223.622 237.25 223.427C236.771 223.233 236.351 222.997 235.99 222.719C235.628 222.441 235.344 222.111 235.135 221.729C234.934 221.347 234.833 220.91 234.833 220.417C234.833 219.937 234.934 219.486 235.135 219.062C235.344 218.632 235.646 218.253 236.042 217.927C236.444 217.594 236.934 217.333 237.51 217.146C238.087 216.951 238.743 216.854 239.479 216.854C240.493 216.854 241.368 217.01 242.104 217.323C242.84 217.628 243.406 218.059 243.802 218.615C244.205 219.163 244.406 219.799 244.406 220.521H240.896C240.896 220.236 240.847 219.993 240.75 219.792C240.66 219.59 240.51 219.437 240.302 219.333C240.094 219.222 239.816 219.167 239.469 219.167C239.226 219.167 239.003 219.212 238.802 219.302C238.608 219.392 238.451 219.517 238.333 219.677C238.215 219.837 238.156 220.024 238.156 220.24C238.156 220.392 238.191 220.531 238.26 220.656C238.337 220.774 238.451 220.885 238.604 220.99C238.757 221.087 238.951 221.177 239.188 221.26C239.424 221.337 239.708 221.406 240.042 221.469C240.799 221.608 241.507 221.806 242.167 222.062C242.826 222.319 243.361 222.684 243.771 223.156C244.188 223.628 244.396 224.264 244.396 225.062C244.396 225.562 244.281 226.024 244.052 226.448C243.823 226.865 243.493 227.233 243.063 227.552C242.632 227.865 242.115 228.108 241.51 228.281C240.906 228.455 240.226 228.542 239.469 228.542C238.392 228.542 237.483 228.351 236.74 227.969C235.997 227.58 235.434 227.094 235.052 226.51C234.677 225.92 234.49 225.323 234.49 224.719H237.76C237.774 225.066 237.858 225.351 238.01 225.573C238.17 225.795 238.382 225.958 238.646 226.062C238.91 226.167 239.215 226.219 239.563 226.219C239.882 226.219 240.146 226.174 240.354 226.083C240.569 225.993 240.733 225.872 240.844 225.719C240.955 225.559 241.01 225.375 241.01 225.167Z" fill="white"/>
<rect x="339" y="196.333" width="208" height="49.3333" rx="4.66667" fill="#888888" stroke="#888888" stroke-width="4"/>
<path d="M440.333 220.229V226.458C440.076 226.743 439.681 227.049 439.146 227.375C438.618 227.694 437.951 227.969 437.146 228.198C436.34 228.427 435.392 228.542 434.302 228.542C433.295 228.542 432.382 228.382 431.562 228.062C430.743 227.736 430.038 227.26 429.448 226.635C428.865 226.003 428.413 225.233 428.094 224.323C427.781 223.406 427.625 222.358 427.625 221.177V220.333C427.625 219.153 427.785 218.104 428.104 217.187C428.424 216.271 428.872 215.5 429.448 214.875C430.031 214.243 430.715 213.764 431.5 213.437C432.292 213.111 433.16 212.948 434.104 212.948C435.5 212.948 436.635 213.17 437.51 213.615C438.385 214.052 439.049 214.66 439.5 215.437C439.951 216.208 440.226 217.101 440.323 218.115H436.812C436.743 217.615 436.611 217.191 436.417 216.844C436.229 216.49 435.958 216.222 435.604 216.042C435.25 215.854 434.792 215.76 434.229 215.76C433.792 215.76 433.392 215.854 433.031 216.042C432.677 216.229 432.375 216.514 432.125 216.896C431.875 217.271 431.681 217.743 431.542 218.312C431.41 218.882 431.344 219.549 431.344 220.312V221.177C431.344 221.934 431.406 222.597 431.531 223.167C431.663 223.736 431.858 224.212 432.115 224.594C432.378 224.969 432.712 225.253 433.115 225.448C433.524 225.635 434.007 225.729 434.562 225.729C434.951 225.729 435.285 225.698 435.562 225.635C435.84 225.566 436.069 225.483 436.25 225.385C436.437 225.281 436.58 225.184 436.677 225.094V222.74H434.135V220.229H440.333ZM446.01 217.062V228.333H442.49V217.062H446.01ZM442.281 214.156C442.281 213.656 442.462 213.247 442.823 212.927C443.184 212.608 443.653 212.448 444.229 212.448C444.806 212.448 445.274 212.608 445.635 212.927C445.997 213.247 446.177 213.656 446.177 214.156C446.177 214.656 445.997 215.066 445.635 215.385C445.274 215.705 444.806 215.865 444.229 215.865C443.653 215.865 443.184 215.705 442.823 215.385C442.462 215.066 442.281 214.656 442.281 214.156ZM451.625 219.469V228.333H448.115V217.062H451.406L451.625 219.469ZM451.208 222.312L450.385 222.333C450.385 221.472 450.49 220.705 450.698 220.031C450.906 219.351 451.201 218.774 451.583 218.302C451.965 217.83 452.42 217.472 452.948 217.229C453.483 216.979 454.076 216.854 454.729 216.854C455.25 216.854 455.726 216.931 456.156 217.083C456.594 217.236 456.969 217.483 457.281 217.823C457.601 218.163 457.844 218.615 458.01 219.177C458.184 219.733 458.271 220.42 458.271 221.24V228.333H454.74V221.229C454.74 220.778 454.677 220.434 454.552 220.198C454.427 219.955 454.247 219.788 454.01 219.698C453.774 219.608 453.486 219.562 453.146 219.562C452.785 219.562 452.479 219.632 452.229 219.771C451.979 219.91 451.778 220.104 451.625 220.354C451.479 220.597 451.372 220.885 451.302 221.219C451.24 221.552 451.208 221.917 451.208 222.312Z" fill="white"/>
<rect x="571" y="196.333" width="208" height="49.3333" rx="4.66667" fill="#888888" stroke="#888888" stroke-width="4"/>
<path d="M630.656 213.167H633.635L637.021 223.719L640.406 213.167H643.385L638.229 228.333H635.813L630.656 213.167ZM628.844 213.167H631.927L632.5 224.792V228.333H628.844V213.167ZM642.115 213.167H645.208V228.333H641.542V224.792L642.115 213.167ZM646.948 222.812V222.594C646.948 221.767 647.066 221.007 647.302 220.312C647.538 219.611 647.885 219.003 648.344 218.49C648.802 217.976 649.368 217.576 650.042 217.292C650.715 217 651.493 216.854 652.375 216.854C653.264 216.854 654.045 217 654.719 217.292C655.399 217.576 655.969 217.976 656.427 218.49C656.885 219.003 657.233 219.611 657.469 220.312C657.705 221.007 657.823 221.767 657.823 222.594V222.812C657.823 223.632 657.705 224.392 657.469 225.094C657.233 225.788 656.885 226.396 656.427 226.917C655.969 227.431 655.403 227.83 654.729 228.115C654.056 228.399 653.278 228.542 652.396 228.542C651.514 228.542 650.733 228.399 650.052 228.115C649.372 227.83 648.802 227.431 648.344 226.917C647.885 226.396 647.538 225.788 647.302 225.094C647.066 224.392 646.948 223.632 646.948 222.812ZM650.458 222.594V222.812C650.458 223.236 650.49 223.632 650.552 224C650.615 224.368 650.719 224.691 650.865 224.969C651.01 225.24 651.208 225.451 651.458 225.604C651.708 225.757 652.021 225.833 652.396 225.833C652.764 225.833 653.069 225.757 653.313 225.604C653.563 225.451 653.76 225.24 653.906 224.969C654.052 224.691 654.156 224.368 654.219 224C654.281 223.632 654.313 223.236 654.313 222.812V222.594C654.313 222.184 654.281 221.799 654.219 221.437C654.156 221.069 654.052 220.747 653.906 220.469C653.76 220.184 653.563 219.962 653.313 219.802C653.063 219.642 652.75 219.562 652.375 219.562C652.007 219.562 651.698 219.642 651.448 219.802C651.205 219.962 651.01 220.184 650.865 220.469C650.719 220.747 650.615 221.069 650.552 221.437C650.49 221.799 650.458 222.184 650.458 222.594ZM662.833 219.469V228.333H659.323V217.062H662.615L662.833 219.469ZM662.417 222.312L661.594 222.333C661.594 221.472 661.698 220.705 661.906 220.031C662.115 219.351 662.41 218.774 662.792 218.302C663.174 217.83 663.628 217.472 664.156 217.229C664.691 216.979 665.285 216.854 665.938 216.854C666.458 216.854 666.934 216.931 667.365 217.083C667.802 217.236 668.177 217.483 668.49 217.823C668.809 218.163 669.052 218.615 669.219 219.177C669.392 219.733 669.479 220.42 669.479 221.24V228.333H665.948V221.229C665.948 220.778 665.885 220.434 665.76 220.198C665.635 219.955 665.455 219.788 665.219 219.698C664.983 219.608 664.694 219.562 664.354 219.562C663.993 219.562 663.688 219.632 663.438 219.771C663.188 219.91 662.986 220.104 662.833 220.354C662.688 220.597 662.58 220.885 662.51 221.219C662.448 221.552 662.417 221.917 662.417 222.312ZM678.51 217.062H681.698V227.896C681.698 228.937 681.458 229.819 680.979 230.542C680.5 231.271 679.83 231.823 678.969 232.198C678.115 232.58 677.115 232.771 675.969 232.771C675.462 232.771 674.944 232.705 674.417 232.573C673.889 232.448 673.396 232.26 672.938 232.01C672.479 231.76 672.094 231.451 671.781 231.083L673.25 229.021C673.535 229.34 673.892 229.611 674.323 229.833C674.753 230.062 675.26 230.177 675.844 230.177C676.351 230.177 676.774 230.087 677.115 229.906C677.462 229.726 677.726 229.462 677.906 229.115C678.087 228.774 678.177 228.361 678.177 227.875V219.729L678.51 217.062ZM671.021 222.833V222.615C671.021 221.76 671.125 220.983 671.333 220.281C671.549 219.573 671.854 218.965 672.25 218.458C672.653 217.944 673.139 217.549 673.708 217.271C674.278 216.993 674.92 216.854 675.635 216.854C676.406 216.854 677.038 217.003 677.531 217.302C678.031 217.594 678.431 218.003 678.729 218.531C679.035 219.059 679.271 219.677 679.438 220.385C679.611 221.087 679.757 221.844 679.875 222.656V222.917C679.757 223.681 679.594 224.403 679.385 225.083C679.184 225.757 678.92 226.354 678.594 226.875C678.267 227.396 677.858 227.806 677.365 228.104C676.878 228.396 676.295 228.542 675.615 228.542C674.906 228.542 674.267 228.399 673.698 228.115C673.135 227.83 672.653 227.431 672.25 226.917C671.854 226.403 671.549 225.799 671.333 225.104C671.125 224.41 671.021 223.653 671.021 222.833ZM674.531 222.615V222.833C674.531 223.257 674.569 223.649 674.646 224.01C674.729 224.372 674.854 224.691 675.021 224.969C675.188 225.24 675.392 225.451 675.635 225.604C675.885 225.757 676.177 225.833 676.51 225.833C677.017 225.833 677.427 225.726 677.74 225.51C678.052 225.295 678.278 224.99 678.417 224.594C678.556 224.198 678.615 223.733 678.594 223.198V222.375C678.608 221.917 678.576 221.514 678.5 221.167C678.424 220.812 678.302 220.517 678.135 220.281C677.976 220.045 677.76 219.868 677.49 219.75C677.226 219.625 676.906 219.562 676.531 219.562C676.205 219.562 675.917 219.639 675.667 219.792C675.417 219.944 675.208 220.16 675.042 220.437C674.875 220.708 674.747 221.031 674.656 221.406C674.573 221.774 674.531 222.177 674.531 222.615ZM683.281 222.812V222.594C683.281 221.767 683.399 221.007 683.635 220.312C683.872 219.611 684.219 219.003 684.677 218.49C685.135 217.976 685.701 217.576 686.375 217.292C687.049 217 687.826 216.854 688.708 216.854C689.597 216.854 690.378 217 691.052 217.292C691.733 217.576 692.302 217.976 692.76 218.49C693.219 219.003 693.566 219.611 693.802 220.312C694.038 221.007 694.156 221.767 694.156 222.594V222.812C694.156 223.632 694.038 224.392 693.802 225.094C693.566 225.788 693.219 226.396 692.76 226.917C692.302 227.431 691.736 227.83 691.063 228.115C690.389 228.399 689.611 228.542 688.729 228.542C687.847 228.542 687.066 228.399 686.385 228.115C685.705 227.83 685.135 227.431 684.677 226.917C684.219 226.396 683.872 225.788 683.635 225.094C683.399 224.392 683.281 223.632 683.281 222.812ZM686.792 222.594V222.812C686.792 223.236 686.823 223.632 686.885 224C686.948 224.368 687.052 224.691 687.198 224.969C687.344 225.24 687.542 225.451 687.792 225.604C688.042 225.757 688.354 225.833 688.729 225.833C689.097 225.833 689.403 225.757 689.646 225.604C689.896 225.451 690.094 225.24 690.24 224.969C690.385 224.691 690.49 224.368 690.552 224C690.615 223.632 690.646 223.236 690.646 222.812V222.594C690.646 222.184 690.615 221.799 690.552 221.437C690.49 221.069 690.385 220.747 690.24 220.469C690.094 220.184 689.896 219.962 689.646 219.802C689.396 219.642 689.083 219.562 688.708 219.562C688.34 219.562 688.031 219.642 687.781 219.802C687.538 219.962 687.344 220.184 687.198 220.469C687.052 220.747 686.948 221.069 686.885 221.437C686.823 221.799 686.792 222.184 686.792 222.594ZM700.813 228.333H697.448L697.469 225.521H700.813C701.507 225.521 702.094 225.354 702.573 225.021C703.059 224.687 703.427 224.191 703.677 223.531C703.934 222.865 704.063 222.045 704.063 221.073V220.417C704.063 219.687 703.99 219.049 703.844 218.5C703.705 217.944 703.497 217.483 703.219 217.115C702.941 216.74 702.594 216.458 702.177 216.271C701.767 216.083 701.295 215.99 700.76 215.99H697.385V213.167H700.76C701.788 213.167 702.729 213.344 703.583 213.698C704.444 214.045 705.188 214.545 705.813 215.198C706.444 215.844 706.931 216.611 707.271 217.5C707.618 218.382 707.792 219.361 707.792 220.437V221.073C707.792 222.142 707.618 223.122 707.271 224.01C706.931 224.899 706.448 225.667 705.823 226.312C705.198 226.958 704.458 227.458 703.604 227.812C702.757 228.16 701.826 228.333 700.813 228.333ZM699.542 213.167V228.333H695.885V213.167H699.542ZM715.885 221.885H711.979L711.958 219.49H715.125C715.694 219.49 716.149 219.427 716.49 219.302C716.83 219.17 717.076 218.979 717.229 218.729C717.389 218.479 717.469 218.167 717.469 217.792C717.469 217.361 717.389 217.014 717.229 216.75C717.069 216.486 716.816 216.295 716.469 216.177C716.128 216.052 715.688 215.99 715.146 215.99H713.354V228.333H709.698V213.167H715.146C716.083 213.167 716.92 213.253 717.656 213.427C718.392 213.594 719.017 213.851 719.531 214.198C720.052 214.545 720.448 214.983 720.719 215.51C720.99 216.031 721.125 216.646 721.125 217.354C721.125 217.972 720.993 218.552 720.729 219.094C720.465 219.635 720.024 220.076 719.406 220.417C718.795 220.75 717.958 220.924 716.896 220.937L715.885 221.885ZM715.74 228.333H711.094L712.344 225.521H715.74C716.24 225.521 716.639 225.444 716.938 225.292C717.243 225.132 717.462 224.924 717.594 224.667C717.733 224.403 717.802 224.111 717.802 223.792C717.802 223.403 717.736 223.066 717.604 222.781C717.479 222.497 717.278 222.278 717 222.125C716.722 221.965 716.351 221.885 715.885 221.885H712.813L712.833 219.49H716.51L717.365 220.448C718.378 220.406 719.181 220.549 719.771 220.875C720.368 221.201 720.795 221.632 721.052 222.167C721.309 222.701 721.438 223.26 721.438 223.844C721.438 224.837 721.222 225.667 720.792 226.333C720.368 227 719.733 227.5 718.885 227.833C718.038 228.167 716.99 228.333 715.74 228.333Z" fill="white"/>
</svg>
